M48
; DRILL file {KiCad (5.1.6-0-10_14)} date Sunday, July 19, 2020 at 06:01:06 PM
; FORMAT={-:-/ absolute / inch / decimal}
; #@! TF.CreationDate,2020-07-19T18:01:06+02:00
; #@! TF.GenerationSoftware,Kicad,Pcbnew,(5.1.6-0-10_14)
FMAT,2
INCH
T1C0.0157
T2C0.0295
T3C0.0315
T4C0.0394
T5C0.0433
T6C0.1260
%
G90
G05
T1
X4.8949Y-3.9327
X5.0199Y-3.6327
X5.0699Y-3.3827
X5.1449Y-3.1327
X5.1449Y-4.0827
X5.6199Y-4.0827
X6.0699Y-3.2577
X6.1199Y-4.0827
X6.4949Y-3.3827
T2
X6.3949Y-3.8827
X6.4449Y-3.8327
X6.4449Y-3.9327
T3
X6.6699Y-3.8077
X6.9699Y-3.8077
X6.3965Y-4.1327
X6.4949Y-4.1327
X5.8965Y-2.8827
X5.9949Y-2.8827
X6.1465Y-2.8827
X6.2449Y-2.8827
X4.6949Y-3.6827
X4.6949Y-3.9827
X4.6949Y-3.1827
X4.6949Y-3.4827
X6.8965Y-4.0577
X6.9949Y-4.0577
X6.1949Y-3.9827
X6.1949Y-4.2827
X6.0449Y-3.9827
X6.0449Y-4.2827
X5.8949Y-3.9827
X5.8949Y-4.2827
T4
X4.8449Y-4.3077
X4.9449Y-4.3077
X5.0449Y-4.3077
X5.1449Y-4.3077
X5.2449Y-4.3077
X6.7949Y-4.3077
X6.8949Y-4.3077
X6.9949Y-4.3077
X7.1949Y-3.2077
X7.1949Y-3.3077
X6.3949Y-2.9077
X6.3949Y-3.0077
X6.3949Y-3.1077
X6.3949Y-3.2077
X6.3949Y-3.3077
X6.3949Y-3.4077
X6.3949Y-3.5077
X6.3949Y-3.6077
X6.9949Y-2.9077
X6.9949Y-3.0077
X6.9949Y-3.1077
X6.9949Y-3.2077
X6.9949Y-3.3077
X6.9949Y-3.4077
X6.9949Y-3.5077
X6.9949Y-3.6077
X4.8449Y-3.1577
X4.8449Y-3.2577
X4.8449Y-3.3577
X4.8449Y-3.4577
X4.8449Y-3.5577
X4.8449Y-3.6577
X4.8449Y-3.7577
X4.8449Y-3.8577
X5.7449Y-3.1577
X5.7449Y-3.2577
X5.7449Y-3.3577
X5.7449Y-3.4577
X5.7449Y-3.5577
X5.7449Y-3.6577
X5.7449Y-3.7577
X5.7449Y-3.8577
X6.3949Y-4.3077
X6.4949Y-4.3077
X5.5199Y-4.3077
X5.6199Y-4.3077
X5.7199Y-4.3077
T5
X5.9699Y-3.0327
X6.0699Y-3.0327
X6.1699Y-3.0327
X6.6949Y-3.9577
X6.6949Y-4.0478
X6.6949Y-4.138
T6
X4.6457Y-4.2126
X7.2441Y-2.9528
X7.2441Y-4.2126
X4.6457Y-2.9528
T0
M30
