%TF.GenerationSoftware,KiCad,Pcbnew,(5.1.6-0-10_14)*%
%TF.CreationDate,2020-07-19T18:00:59+02:00*%
%TF.ProjectId,UselessV3,5573656c-6573-4735-9633-2e6b69636164,rev?*%
%TF.SameCoordinates,Original*%
%TF.FileFunction,Legend,Top*%
%TF.FilePolarity,Positive*%
%FSLAX46Y46*%
G04 Gerber Fmt 4.6, Leading zero omitted, Abs format (unit mm)*
G04 Created by KiCad (PCBNEW (5.1.6-0-10_14)) date 2020-07-19 18:00:59*
%MOMM*%
%LPD*%
G01*
G04 APERTURE LIST*
%ADD10C,0.120000*%
%ADD11C,0.150000*%
%ADD12C,0.010000*%
G04 APERTURE END LIST*
D10*
X117500000Y-71000000D02*
X117500000Y-72000000D01*
X117500000Y-110000000D02*
X117500000Y-111000000D01*
X184500000Y-110000000D02*
X184500000Y-111000000D01*
X184500000Y-71000000D02*
X184500000Y-72000000D01*
D11*
X180627380Y-99642857D02*
X181436904Y-99642857D01*
X181532142Y-99595238D01*
X181579761Y-99547619D01*
X181627380Y-99452380D01*
X181627380Y-99261904D01*
X181579761Y-99166666D01*
X181532142Y-99119047D01*
X181436904Y-99071428D01*
X180627380Y-99071428D01*
X181579761Y-98642857D02*
X181627380Y-98547619D01*
X181627380Y-98357142D01*
X181579761Y-98261904D01*
X181484523Y-98214285D01*
X181436904Y-98214285D01*
X181341666Y-98261904D01*
X181294047Y-98357142D01*
X181294047Y-98500000D01*
X181246428Y-98595238D01*
X181151190Y-98642857D01*
X181103571Y-98642857D01*
X181008333Y-98595238D01*
X180960714Y-98500000D01*
X180960714Y-98357142D01*
X181008333Y-98261904D01*
X181579761Y-97404761D02*
X181627380Y-97500000D01*
X181627380Y-97690476D01*
X181579761Y-97785714D01*
X181484523Y-97833333D01*
X181103571Y-97833333D01*
X181008333Y-97785714D01*
X180960714Y-97690476D01*
X180960714Y-97500000D01*
X181008333Y-97404761D01*
X181103571Y-97357142D01*
X181198809Y-97357142D01*
X181294047Y-97833333D01*
X181627380Y-96785714D02*
X181579761Y-96880952D01*
X181484523Y-96928571D01*
X180627380Y-96928571D01*
X181579761Y-96023809D02*
X181627380Y-96119047D01*
X181627380Y-96309523D01*
X181579761Y-96404761D01*
X181484523Y-96452380D01*
X181103571Y-96452380D01*
X181008333Y-96404761D01*
X180960714Y-96309523D01*
X180960714Y-96119047D01*
X181008333Y-96023809D01*
X181103571Y-95976190D01*
X181198809Y-95976190D01*
X181294047Y-96452380D01*
X181579761Y-95595238D02*
X181627380Y-95500000D01*
X181627380Y-95309523D01*
X181579761Y-95214285D01*
X181484523Y-95166666D01*
X181436904Y-95166666D01*
X181341666Y-95214285D01*
X181294047Y-95309523D01*
X181294047Y-95452380D01*
X181246428Y-95547619D01*
X181151190Y-95595238D01*
X181103571Y-95595238D01*
X181008333Y-95547619D01*
X180960714Y-95452380D01*
X180960714Y-95309523D01*
X181008333Y-95214285D01*
X181579761Y-94785714D02*
X181627380Y-94690476D01*
X181627380Y-94500000D01*
X181579761Y-94404761D01*
X181484523Y-94357142D01*
X181436904Y-94357142D01*
X181341666Y-94404761D01*
X181294047Y-94500000D01*
X181294047Y-94642857D01*
X181246428Y-94738095D01*
X181151190Y-94785714D01*
X181103571Y-94785714D01*
X181008333Y-94738095D01*
X180960714Y-94642857D01*
X180960714Y-94500000D01*
X181008333Y-94404761D01*
X181103571Y-92833333D02*
X181151190Y-92690476D01*
X181198809Y-92642857D01*
X181294047Y-92595238D01*
X181436904Y-92595238D01*
X181532142Y-92642857D01*
X181579761Y-92690476D01*
X181627380Y-92785714D01*
X181627380Y-93166666D01*
X180627380Y-93166666D01*
X180627380Y-92833333D01*
X180675000Y-92738095D01*
X180722619Y-92690476D01*
X180817857Y-92642857D01*
X180913095Y-92642857D01*
X181008333Y-92690476D01*
X181055952Y-92738095D01*
X181103571Y-92833333D01*
X181103571Y-93166666D01*
X181627380Y-92023809D02*
X181579761Y-92119047D01*
X181532142Y-92166666D01*
X181436904Y-92214285D01*
X181151190Y-92214285D01*
X181055952Y-92166666D01*
X181008333Y-92119047D01*
X180960714Y-92023809D01*
X180960714Y-91880952D01*
X181008333Y-91785714D01*
X181055952Y-91738095D01*
X181151190Y-91690476D01*
X181436904Y-91690476D01*
X181532142Y-91738095D01*
X181579761Y-91785714D01*
X181627380Y-91880952D01*
X181627380Y-92023809D01*
X181627380Y-91357142D02*
X180960714Y-90833333D01*
X180960714Y-91357142D02*
X181627380Y-90833333D01*
X180627380Y-89833333D02*
X181627380Y-89500000D01*
X180627380Y-89166666D01*
X180627380Y-88928571D02*
X180627380Y-88309523D01*
X181008333Y-88642857D01*
X181008333Y-88500000D01*
X181055952Y-88404761D01*
X181103571Y-88357142D01*
X181198809Y-88309523D01*
X181436904Y-88309523D01*
X181532142Y-88357142D01*
X181579761Y-88404761D01*
X181627380Y-88500000D01*
X181627380Y-88785714D01*
X181579761Y-88880952D01*
X181532142Y-88928571D01*
X183277380Y-99357142D02*
X182801190Y-99690476D01*
X183277380Y-99928571D02*
X182277380Y-99928571D01*
X182277380Y-99547619D01*
X182325000Y-99452380D01*
X182372619Y-99404761D01*
X182467857Y-99357142D01*
X182610714Y-99357142D01*
X182705952Y-99404761D01*
X182753571Y-99452380D01*
X182801190Y-99547619D01*
X182801190Y-99928571D01*
X183229761Y-98547619D02*
X183277380Y-98642857D01*
X183277380Y-98833333D01*
X183229761Y-98928571D01*
X183134523Y-98976190D01*
X182753571Y-98976190D01*
X182658333Y-98928571D01*
X182610714Y-98833333D01*
X182610714Y-98642857D01*
X182658333Y-98547619D01*
X182753571Y-98500000D01*
X182848809Y-98500000D01*
X182944047Y-98976190D01*
X182610714Y-98166666D02*
X183277380Y-97928571D01*
X182610714Y-97690476D01*
X183277380Y-96023809D02*
X183277380Y-96595238D01*
X183277380Y-96309523D02*
X182277380Y-96309523D01*
X182420238Y-96404761D01*
X182515476Y-96500000D01*
X182563095Y-96595238D01*
X183182142Y-95595238D02*
X183229761Y-95547619D01*
X183277380Y-95595238D01*
X183229761Y-95642857D01*
X183182142Y-95595238D01*
X183277380Y-95595238D01*
X182277380Y-94928571D02*
X182277380Y-94833333D01*
X182325000Y-94738095D01*
X182372619Y-94690476D01*
X182467857Y-94642857D01*
X182658333Y-94595238D01*
X182896428Y-94595238D01*
X183086904Y-94642857D01*
X183182142Y-94690476D01*
X183229761Y-94738095D01*
X183277380Y-94833333D01*
X183277380Y-94928571D01*
X183229761Y-95023809D01*
X183182142Y-95071428D01*
X183086904Y-95119047D01*
X182896428Y-95166666D01*
X182658333Y-95166666D01*
X182467857Y-95119047D01*
X182372619Y-95071428D01*
X182325000Y-95023809D01*
X182277380Y-94928571D01*
X182896428Y-93404761D02*
X182896428Y-92642857D01*
X182372619Y-91452380D02*
X182325000Y-91404761D01*
X182277380Y-91309523D01*
X182277380Y-91071428D01*
X182325000Y-90976190D01*
X182372619Y-90928571D01*
X182467857Y-90880952D01*
X182563095Y-90880952D01*
X182705952Y-90928571D01*
X183277380Y-91500000D01*
X183277380Y-90880952D01*
X182277380Y-90261904D02*
X182277380Y-90166666D01*
X182325000Y-90071428D01*
X182372619Y-90023809D01*
X182467857Y-89976190D01*
X182658333Y-89928571D01*
X182896428Y-89928571D01*
X183086904Y-89976190D01*
X183182142Y-90023809D01*
X183229761Y-90071428D01*
X183277380Y-90166666D01*
X183277380Y-90261904D01*
X183229761Y-90357142D01*
X183182142Y-90404761D01*
X183086904Y-90452380D01*
X182896428Y-90500000D01*
X182658333Y-90500000D01*
X182467857Y-90452380D01*
X182372619Y-90404761D01*
X182325000Y-90357142D01*
X182277380Y-90261904D01*
X182372619Y-89547619D02*
X182325000Y-89500000D01*
X182277380Y-89404761D01*
X182277380Y-89166666D01*
X182325000Y-89071428D01*
X182372619Y-89023809D01*
X182467857Y-88976190D01*
X182563095Y-88976190D01*
X182705952Y-89023809D01*
X183277380Y-89595238D01*
X183277380Y-88976190D01*
X182277380Y-88357142D02*
X182277380Y-88261904D01*
X182325000Y-88166666D01*
X182372619Y-88119047D01*
X182467857Y-88071428D01*
X182658333Y-88023809D01*
X182896428Y-88023809D01*
X183086904Y-88071428D01*
X183182142Y-88119047D01*
X183229761Y-88166666D01*
X183277380Y-88261904D01*
X183277380Y-88357142D01*
X183229761Y-88452380D01*
X183182142Y-88500000D01*
X183086904Y-88547619D01*
X182896428Y-88595238D01*
X182658333Y-88595238D01*
X182467857Y-88547619D01*
X182372619Y-88500000D01*
X182325000Y-88452380D01*
X182277380Y-88357142D01*
X149841666Y-94595714D02*
X150079761Y-95262380D01*
X150317857Y-94595714D02*
X150079761Y-95262380D01*
X149984523Y-95500476D01*
X149936904Y-95548095D01*
X149841666Y-95595714D01*
X150698809Y-94881428D02*
X151460714Y-94881428D01*
X151794047Y-94595714D02*
X152175000Y-94595714D01*
X151936904Y-95262380D02*
X151936904Y-94405238D01*
X151984523Y-94310000D01*
X152079761Y-94262380D01*
X152175000Y-94262380D01*
X152936904Y-95262380D02*
X152936904Y-94738571D01*
X152889285Y-94643333D01*
X152794047Y-94595714D01*
X152603571Y-94595714D01*
X152508333Y-94643333D01*
X152936904Y-95214761D02*
X152841666Y-95262380D01*
X152603571Y-95262380D01*
X152508333Y-95214761D01*
X152460714Y-95119523D01*
X152460714Y-95024285D01*
X152508333Y-94929047D01*
X152603571Y-94881428D01*
X152841666Y-94881428D01*
X152936904Y-94833809D01*
X153413095Y-95262380D02*
X153413095Y-94262380D01*
X153413095Y-94643333D02*
X153508333Y-94595714D01*
X153698809Y-94595714D01*
X153794047Y-94643333D01*
X153841666Y-94690952D01*
X153889285Y-94786190D01*
X153889285Y-95071904D01*
X153841666Y-95167142D01*
X153794047Y-95214761D01*
X153698809Y-95262380D01*
X153508333Y-95262380D01*
X153413095Y-95214761D01*
X154460714Y-95262380D02*
X154365476Y-95214761D01*
X154317857Y-95119523D01*
X154317857Y-94262380D01*
X155270238Y-95262380D02*
X155270238Y-94738571D01*
X155222619Y-94643333D01*
X155127380Y-94595714D01*
X154936904Y-94595714D01*
X154841666Y-94643333D01*
X155270238Y-95214761D02*
X155175000Y-95262380D01*
X154936904Y-95262380D01*
X154841666Y-95214761D01*
X154794047Y-95119523D01*
X154794047Y-95024285D01*
X154841666Y-94929047D01*
X154936904Y-94881428D01*
X155175000Y-94881428D01*
X155270238Y-94833809D01*
X155746428Y-95262380D02*
X155746428Y-94262380D01*
X155746428Y-94643333D02*
X155841666Y-94595714D01*
X156032142Y-94595714D01*
X156127380Y-94643333D01*
X156175000Y-94690952D01*
X156222619Y-94786190D01*
X156222619Y-95071904D01*
X156175000Y-95167142D01*
X156127380Y-95214761D01*
X156032142Y-95262380D01*
X155841666Y-95262380D01*
X155746428Y-95214761D01*
X156651190Y-95167142D02*
X156698809Y-95214761D01*
X156651190Y-95262380D01*
X156603571Y-95214761D01*
X156651190Y-95167142D01*
X156651190Y-95262380D01*
X157555952Y-95214761D02*
X157460714Y-95262380D01*
X157270238Y-95262380D01*
X157175000Y-95214761D01*
X157127380Y-95167142D01*
X157079761Y-95071904D01*
X157079761Y-94786190D01*
X157127380Y-94690952D01*
X157175000Y-94643333D01*
X157270238Y-94595714D01*
X157460714Y-94595714D01*
X157555952Y-94643333D01*
X157984523Y-95262380D02*
X157984523Y-94262380D01*
X158413095Y-95262380D02*
X158413095Y-94738571D01*
X158365476Y-94643333D01*
X158270238Y-94595714D01*
X158127380Y-94595714D01*
X158032142Y-94643333D01*
X157984523Y-94690952D01*
D12*
%TO.C,G\u002A\u002A\u002A*%
G36*
X158418540Y-86078892D02*
G01*
X158426442Y-86091094D01*
X158437674Y-86110882D01*
X158451730Y-86137222D01*
X158468104Y-86169081D01*
X158486289Y-86205426D01*
X158505779Y-86245224D01*
X158526068Y-86287443D01*
X158546648Y-86331049D01*
X158567014Y-86375009D01*
X158586660Y-86418291D01*
X158605078Y-86459861D01*
X158620080Y-86494707D01*
X158702803Y-86703488D01*
X158775416Y-86915144D01*
X158837894Y-87129341D01*
X158890211Y-87345745D01*
X158932343Y-87564019D01*
X158964265Y-87783831D01*
X158985951Y-88004844D01*
X158997376Y-88226724D01*
X158998514Y-88449136D01*
X158989341Y-88671746D01*
X158969832Y-88894218D01*
X158939961Y-89116218D01*
X158899703Y-89337411D01*
X158850236Y-89552729D01*
X158789739Y-89769963D01*
X158719547Y-89983267D01*
X158639851Y-90192352D01*
X158550843Y-90396930D01*
X158452716Y-90596711D01*
X158345663Y-90791407D01*
X158229874Y-90980729D01*
X158105544Y-91164388D01*
X157972863Y-91342096D01*
X157832025Y-91513563D01*
X157683221Y-91678501D01*
X157526644Y-91836621D01*
X157362487Y-91987634D01*
X157190941Y-92131251D01*
X157072187Y-92223029D01*
X156886484Y-92355457D01*
X156696008Y-92478510D01*
X156500985Y-92592101D01*
X156301643Y-92696141D01*
X156098208Y-92790541D01*
X155890906Y-92875214D01*
X155679963Y-92950069D01*
X155465605Y-93015020D01*
X155248060Y-93069977D01*
X155027553Y-93114852D01*
X154804311Y-93149556D01*
X154659187Y-93166481D01*
X154623173Y-93169925D01*
X154583852Y-93173246D01*
X154539796Y-93176545D01*
X154489573Y-93179924D01*
X154431753Y-93183483D01*
X154364907Y-93187322D01*
X154358885Y-93187658D01*
X154312583Y-93190235D01*
X154312758Y-92945753D01*
X154312934Y-92701271D01*
X155713718Y-91883708D01*
X155831890Y-91814738D01*
X155950450Y-91745541D01*
X156068888Y-91676416D01*
X156186690Y-91607661D01*
X156303347Y-91539576D01*
X156418344Y-91472459D01*
X156531172Y-91406609D01*
X156641318Y-91342325D01*
X156748270Y-91279904D01*
X156851516Y-91219647D01*
X156950545Y-91161851D01*
X157044845Y-91106815D01*
X157133904Y-91054838D01*
X157217210Y-91006219D01*
X157294252Y-90961257D01*
X157364518Y-90920249D01*
X157427496Y-90883495D01*
X157482673Y-90851293D01*
X157529540Y-90823943D01*
X157554175Y-90809566D01*
X157993847Y-90552987D01*
X157997429Y-89820534D01*
X157997845Y-89733371D01*
X157998227Y-89649145D01*
X157998573Y-89568457D01*
X157998881Y-89491913D01*
X157999150Y-89420116D01*
X157999378Y-89353670D01*
X157999563Y-89293178D01*
X157999703Y-89239245D01*
X157999797Y-89192473D01*
X157999843Y-89153467D01*
X157999839Y-89122830D01*
X157999783Y-89101166D01*
X157999674Y-89089079D01*
X157999570Y-89086640D01*
X157994786Y-89088749D01*
X157982193Y-89095456D01*
X157963120Y-89106021D01*
X157938897Y-89119703D01*
X157910853Y-89135763D01*
X157897638Y-89143397D01*
X157872267Y-89158083D01*
X157839162Y-89177235D01*
X157799751Y-89200028D01*
X157755466Y-89225633D01*
X157707736Y-89253225D01*
X157657991Y-89281977D01*
X157607661Y-89311062D01*
X157563741Y-89336438D01*
X157330336Y-89471282D01*
X157323740Y-89493485D01*
X157317343Y-89513841D01*
X157307879Y-89542388D01*
X157295962Y-89577395D01*
X157282205Y-89617128D01*
X157267222Y-89659857D01*
X157251626Y-89703849D01*
X157236030Y-89747372D01*
X157221048Y-89788694D01*
X157207293Y-89826084D01*
X157195379Y-89857809D01*
X157187498Y-89878167D01*
X157166089Y-89930866D01*
X157146107Y-89976519D01*
X157126010Y-90018236D01*
X157104257Y-90059129D01*
X157079306Y-90102308D01*
X157063508Y-90128409D01*
X156984304Y-90249218D01*
X156899043Y-90363318D01*
X156808253Y-90470200D01*
X156712465Y-90569352D01*
X156612209Y-90660266D01*
X156508013Y-90742430D01*
X156400407Y-90815335D01*
X156289922Y-90878472D01*
X156278437Y-90884381D01*
X156172397Y-90933716D01*
X156067269Y-90973380D01*
X155963382Y-91003368D01*
X155861069Y-91023679D01*
X155760661Y-91034311D01*
X155662489Y-91035261D01*
X155566885Y-91026528D01*
X155474180Y-91008108D01*
X155384705Y-90980000D01*
X155298792Y-90942202D01*
X155216772Y-90894710D01*
X155212141Y-90891659D01*
X155184020Y-90870740D01*
X155151937Y-90843160D01*
X155117922Y-90810986D01*
X155083998Y-90776285D01*
X155052193Y-90741123D01*
X155024534Y-90707567D01*
X155004467Y-90679854D01*
X154955166Y-90597044D01*
X154913762Y-90509591D01*
X154880007Y-90416745D01*
X154853655Y-90317754D01*
X154834459Y-90211870D01*
X154825297Y-90134812D01*
X154823209Y-90103676D01*
X154821953Y-90064397D01*
X154821482Y-90019233D01*
X154821749Y-89970441D01*
X154822706Y-89920278D01*
X154824306Y-89871004D01*
X154826501Y-89824874D01*
X154829244Y-89784147D01*
X154832488Y-89751081D01*
X154833518Y-89743229D01*
X154861683Y-89581649D01*
X154900032Y-89422884D01*
X154948484Y-89267168D01*
X155006960Y-89114736D01*
X155075379Y-88965824D01*
X155128585Y-88865953D01*
X155618167Y-88865953D01*
X155618501Y-88874423D01*
X155619198Y-88884194D01*
X155619621Y-88895288D01*
X155619625Y-88896230D01*
X155619900Y-88917498D01*
X155620684Y-88946042D01*
X155621907Y-88980594D01*
X155623502Y-89019888D01*
X155625403Y-89062655D01*
X155627542Y-89107627D01*
X155629852Y-89153538D01*
X155632266Y-89199120D01*
X155634716Y-89243104D01*
X155637135Y-89284225D01*
X155639456Y-89321214D01*
X155641611Y-89352803D01*
X155643534Y-89377725D01*
X155645157Y-89394713D01*
X155646412Y-89402499D01*
X155646497Y-89402691D01*
X155648140Y-89404960D01*
X155651025Y-89406851D01*
X155656057Y-89408396D01*
X155664138Y-89409631D01*
X155676172Y-89410591D01*
X155693061Y-89411310D01*
X155715710Y-89411822D01*
X155745022Y-89412163D01*
X155781899Y-89412366D01*
X155827245Y-89412466D01*
X155881963Y-89412498D01*
X155902915Y-89412500D01*
X155966975Y-89412609D01*
X156022085Y-89412934D01*
X156067977Y-89413467D01*
X156104384Y-89414205D01*
X156131039Y-89415141D01*
X156147675Y-89416270D01*
X156154024Y-89417586D01*
X156154083Y-89417735D01*
X156150848Y-89423599D01*
X156142035Y-89435713D01*
X156128986Y-89452320D01*
X156113038Y-89471660D01*
X156112773Y-89471975D01*
X156101408Y-89485447D01*
X156084020Y-89506046D01*
X156061414Y-89532819D01*
X156034398Y-89564808D01*
X156003778Y-89601060D01*
X155970362Y-89640618D01*
X155934957Y-89682527D01*
X155898369Y-89725832D01*
X155882394Y-89744739D01*
X155846726Y-89787036D01*
X155812881Y-89827332D01*
X155781524Y-89864828D01*
X155753315Y-89898723D01*
X155728920Y-89928216D01*
X155709001Y-89952507D01*
X155694220Y-89970795D01*
X155685241Y-89982280D01*
X155682953Y-89985510D01*
X155677175Y-89997948D01*
X155673917Y-90013651D01*
X155672640Y-90035721D01*
X155672561Y-90045116D01*
X155672802Y-90060513D01*
X155673495Y-90084004D01*
X155674579Y-90114303D01*
X155675992Y-90150125D01*
X155677675Y-90190187D01*
X155679565Y-90233203D01*
X155681602Y-90277888D01*
X155683724Y-90322957D01*
X155685871Y-90367126D01*
X155687982Y-90409109D01*
X155689996Y-90447623D01*
X155691851Y-90481381D01*
X155693486Y-90509100D01*
X155694842Y-90529494D01*
X155695856Y-90541279D01*
X155696233Y-90543594D01*
X155700983Y-90549506D01*
X155708792Y-90548246D01*
X155720307Y-90539335D01*
X155736175Y-90522294D01*
X155753410Y-90501260D01*
X155761661Y-90490742D01*
X155775936Y-90472435D01*
X155795785Y-90446921D01*
X155820757Y-90414781D01*
X155850400Y-90376597D01*
X155884264Y-90332951D01*
X155921896Y-90284424D01*
X155962847Y-90231598D01*
X156006664Y-90175055D01*
X156052897Y-90115377D01*
X156101095Y-90053144D01*
X156150806Y-89988940D01*
X156179207Y-89952250D01*
X156566271Y-89452187D01*
X156785664Y-89326052D01*
X156830036Y-89300428D01*
X156871829Y-89276075D01*
X156910098Y-89253559D01*
X156943893Y-89233450D01*
X156972266Y-89216315D01*
X156994270Y-89202721D01*
X157008957Y-89193237D01*
X157015344Y-89188469D01*
X157024317Y-89176393D01*
X157029206Y-89166959D01*
X157029853Y-89159207D01*
X157029921Y-89142218D01*
X157029474Y-89117318D01*
X157028576Y-89085835D01*
X157027290Y-89049095D01*
X157025680Y-89008426D01*
X157023808Y-88965153D01*
X157021740Y-88920605D01*
X157019537Y-88876107D01*
X157017264Y-88832986D01*
X157014983Y-88792569D01*
X157012759Y-88756184D01*
X157010655Y-88725156D01*
X157008734Y-88700813D01*
X157007060Y-88684481D01*
X157005806Y-88677703D01*
X156998372Y-88668313D01*
X156990625Y-88667788D01*
X156984070Y-88670917D01*
X156969370Y-88678806D01*
X156947525Y-88690889D01*
X156919538Y-88706603D01*
X156886409Y-88725384D01*
X156849141Y-88746668D01*
X156808735Y-88769891D01*
X156785723Y-88783178D01*
X156743223Y-88807735D01*
X156702657Y-88831132D01*
X156665141Y-88852729D01*
X156631793Y-88871883D01*
X156603728Y-88887955D01*
X156582064Y-88900303D01*
X156567916Y-88908286D01*
X156564187Y-88910345D01*
X156537729Y-88924691D01*
X156089291Y-88879351D01*
X156007841Y-88871065D01*
X155936296Y-88863735D01*
X155874021Y-88857386D01*
X155820379Y-88852039D01*
X155774734Y-88847719D01*
X155736451Y-88844446D01*
X155704892Y-88842245D01*
X155679422Y-88841139D01*
X155659404Y-88841149D01*
X155644202Y-88842300D01*
X155633180Y-88844613D01*
X155625701Y-88848112D01*
X155621131Y-88852820D01*
X155618831Y-88858759D01*
X155618167Y-88865953D01*
X155128585Y-88865953D01*
X155140469Y-88843646D01*
X155213266Y-88723357D01*
X155291742Y-88608747D01*
X155375376Y-88500258D01*
X155463649Y-88398333D01*
X155556042Y-88303415D01*
X155652036Y-88215945D01*
X155751110Y-88136365D01*
X155852747Y-88065119D01*
X155956426Y-88002649D01*
X156061628Y-87949396D01*
X156167834Y-87905803D01*
X156274524Y-87872313D01*
X156283729Y-87869913D01*
X156384223Y-87848639D01*
X156482845Y-87836729D01*
X156578940Y-87834177D01*
X156671852Y-87840975D01*
X156760924Y-87857118D01*
X156825473Y-87875573D01*
X156865060Y-87889515D01*
X156899426Y-87903453D01*
X156930656Y-87918615D01*
X156960835Y-87936228D01*
X156992049Y-87957518D01*
X157026380Y-87983712D01*
X157065915Y-88016037D01*
X157070102Y-88019543D01*
X157098150Y-88042930D01*
X157124752Y-88064862D01*
X157148414Y-88084126D01*
X157167639Y-88099509D01*
X157180934Y-88109799D01*
X157184501Y-88112386D01*
X157205735Y-88127101D01*
X157598013Y-87922153D01*
X157990291Y-87717206D01*
X157990291Y-86307502D01*
X158200635Y-86192350D01*
X158243975Y-86168624D01*
X158284455Y-86146465D01*
X158321132Y-86126388D01*
X158353063Y-86108911D01*
X158379303Y-86094549D01*
X158398909Y-86083820D01*
X158410937Y-86077240D01*
X158414475Y-86075308D01*
X158418540Y-86078892D01*
G37*
X158418540Y-86078892D02*
X158426442Y-86091094D01*
X158437674Y-86110882D01*
X158451730Y-86137222D01*
X158468104Y-86169081D01*
X158486289Y-86205426D01*
X158505779Y-86245224D01*
X158526068Y-86287443D01*
X158546648Y-86331049D01*
X158567014Y-86375009D01*
X158586660Y-86418291D01*
X158605078Y-86459861D01*
X158620080Y-86494707D01*
X158702803Y-86703488D01*
X158775416Y-86915144D01*
X158837894Y-87129341D01*
X158890211Y-87345745D01*
X158932343Y-87564019D01*
X158964265Y-87783831D01*
X158985951Y-88004844D01*
X158997376Y-88226724D01*
X158998514Y-88449136D01*
X158989341Y-88671746D01*
X158969832Y-88894218D01*
X158939961Y-89116218D01*
X158899703Y-89337411D01*
X158850236Y-89552729D01*
X158789739Y-89769963D01*
X158719547Y-89983267D01*
X158639851Y-90192352D01*
X158550843Y-90396930D01*
X158452716Y-90596711D01*
X158345663Y-90791407D01*
X158229874Y-90980729D01*
X158105544Y-91164388D01*
X157972863Y-91342096D01*
X157832025Y-91513563D01*
X157683221Y-91678501D01*
X157526644Y-91836621D01*
X157362487Y-91987634D01*
X157190941Y-92131251D01*
X157072187Y-92223029D01*
X156886484Y-92355457D01*
X156696008Y-92478510D01*
X156500985Y-92592101D01*
X156301643Y-92696141D01*
X156098208Y-92790541D01*
X155890906Y-92875214D01*
X155679963Y-92950069D01*
X155465605Y-93015020D01*
X155248060Y-93069977D01*
X155027553Y-93114852D01*
X154804311Y-93149556D01*
X154659187Y-93166481D01*
X154623173Y-93169925D01*
X154583852Y-93173246D01*
X154539796Y-93176545D01*
X154489573Y-93179924D01*
X154431753Y-93183483D01*
X154364907Y-93187322D01*
X154358885Y-93187658D01*
X154312583Y-93190235D01*
X154312758Y-92945753D01*
X154312934Y-92701271D01*
X155713718Y-91883708D01*
X155831890Y-91814738D01*
X155950450Y-91745541D01*
X156068888Y-91676416D01*
X156186690Y-91607661D01*
X156303347Y-91539576D01*
X156418344Y-91472459D01*
X156531172Y-91406609D01*
X156641318Y-91342325D01*
X156748270Y-91279904D01*
X156851516Y-91219647D01*
X156950545Y-91161851D01*
X157044845Y-91106815D01*
X157133904Y-91054838D01*
X157217210Y-91006219D01*
X157294252Y-90961257D01*
X157364518Y-90920249D01*
X157427496Y-90883495D01*
X157482673Y-90851293D01*
X157529540Y-90823943D01*
X157554175Y-90809566D01*
X157993847Y-90552987D01*
X157997429Y-89820534D01*
X157997845Y-89733371D01*
X157998227Y-89649145D01*
X157998573Y-89568457D01*
X157998881Y-89491913D01*
X157999150Y-89420116D01*
X157999378Y-89353670D01*
X157999563Y-89293178D01*
X157999703Y-89239245D01*
X157999797Y-89192473D01*
X157999843Y-89153467D01*
X157999839Y-89122830D01*
X157999783Y-89101166D01*
X157999674Y-89089079D01*
X157999570Y-89086640D01*
X157994786Y-89088749D01*
X157982193Y-89095456D01*
X157963120Y-89106021D01*
X157938897Y-89119703D01*
X157910853Y-89135763D01*
X157897638Y-89143397D01*
X157872267Y-89158083D01*
X157839162Y-89177235D01*
X157799751Y-89200028D01*
X157755466Y-89225633D01*
X157707736Y-89253225D01*
X157657991Y-89281977D01*
X157607661Y-89311062D01*
X157563741Y-89336438D01*
X157330336Y-89471282D01*
X157323740Y-89493485D01*
X157317343Y-89513841D01*
X157307879Y-89542388D01*
X157295962Y-89577395D01*
X157282205Y-89617128D01*
X157267222Y-89659857D01*
X157251626Y-89703849D01*
X157236030Y-89747372D01*
X157221048Y-89788694D01*
X157207293Y-89826084D01*
X157195379Y-89857809D01*
X157187498Y-89878167D01*
X157166089Y-89930866D01*
X157146107Y-89976519D01*
X157126010Y-90018236D01*
X157104257Y-90059129D01*
X157079306Y-90102308D01*
X157063508Y-90128409D01*
X156984304Y-90249218D01*
X156899043Y-90363318D01*
X156808253Y-90470200D01*
X156712465Y-90569352D01*
X156612209Y-90660266D01*
X156508013Y-90742430D01*
X156400407Y-90815335D01*
X156289922Y-90878472D01*
X156278437Y-90884381D01*
X156172397Y-90933716D01*
X156067269Y-90973380D01*
X155963382Y-91003368D01*
X155861069Y-91023679D01*
X155760661Y-91034311D01*
X155662489Y-91035261D01*
X155566885Y-91026528D01*
X155474180Y-91008108D01*
X155384705Y-90980000D01*
X155298792Y-90942202D01*
X155216772Y-90894710D01*
X155212141Y-90891659D01*
X155184020Y-90870740D01*
X155151937Y-90843160D01*
X155117922Y-90810986D01*
X155083998Y-90776285D01*
X155052193Y-90741123D01*
X155024534Y-90707567D01*
X155004467Y-90679854D01*
X154955166Y-90597044D01*
X154913762Y-90509591D01*
X154880007Y-90416745D01*
X154853655Y-90317754D01*
X154834459Y-90211870D01*
X154825297Y-90134812D01*
X154823209Y-90103676D01*
X154821953Y-90064397D01*
X154821482Y-90019233D01*
X154821749Y-89970441D01*
X154822706Y-89920278D01*
X154824306Y-89871004D01*
X154826501Y-89824874D01*
X154829244Y-89784147D01*
X154832488Y-89751081D01*
X154833518Y-89743229D01*
X154861683Y-89581649D01*
X154900032Y-89422884D01*
X154948484Y-89267168D01*
X155006960Y-89114736D01*
X155075379Y-88965824D01*
X155128585Y-88865953D01*
X155618167Y-88865953D01*
X155618501Y-88874423D01*
X155619198Y-88884194D01*
X155619621Y-88895288D01*
X155619625Y-88896230D01*
X155619900Y-88917498D01*
X155620684Y-88946042D01*
X155621907Y-88980594D01*
X155623502Y-89019888D01*
X155625403Y-89062655D01*
X155627542Y-89107627D01*
X155629852Y-89153538D01*
X155632266Y-89199120D01*
X155634716Y-89243104D01*
X155637135Y-89284225D01*
X155639456Y-89321214D01*
X155641611Y-89352803D01*
X155643534Y-89377725D01*
X155645157Y-89394713D01*
X155646412Y-89402499D01*
X155646497Y-89402691D01*
X155648140Y-89404960D01*
X155651025Y-89406851D01*
X155656057Y-89408396D01*
X155664138Y-89409631D01*
X155676172Y-89410591D01*
X155693061Y-89411310D01*
X155715710Y-89411822D01*
X155745022Y-89412163D01*
X155781899Y-89412366D01*
X155827245Y-89412466D01*
X155881963Y-89412498D01*
X155902915Y-89412500D01*
X155966975Y-89412609D01*
X156022085Y-89412934D01*
X156067977Y-89413467D01*
X156104384Y-89414205D01*
X156131039Y-89415141D01*
X156147675Y-89416270D01*
X156154024Y-89417586D01*
X156154083Y-89417735D01*
X156150848Y-89423599D01*
X156142035Y-89435713D01*
X156128986Y-89452320D01*
X156113038Y-89471660D01*
X156112773Y-89471975D01*
X156101408Y-89485447D01*
X156084020Y-89506046D01*
X156061414Y-89532819D01*
X156034398Y-89564808D01*
X156003778Y-89601060D01*
X155970362Y-89640618D01*
X155934957Y-89682527D01*
X155898369Y-89725832D01*
X155882394Y-89744739D01*
X155846726Y-89787036D01*
X155812881Y-89827332D01*
X155781524Y-89864828D01*
X155753315Y-89898723D01*
X155728920Y-89928216D01*
X155709001Y-89952507D01*
X155694220Y-89970795D01*
X155685241Y-89982280D01*
X155682953Y-89985510D01*
X155677175Y-89997948D01*
X155673917Y-90013651D01*
X155672640Y-90035721D01*
X155672561Y-90045116D01*
X155672802Y-90060513D01*
X155673495Y-90084004D01*
X155674579Y-90114303D01*
X155675992Y-90150125D01*
X155677675Y-90190187D01*
X155679565Y-90233203D01*
X155681602Y-90277888D01*
X155683724Y-90322957D01*
X155685871Y-90367126D01*
X155687982Y-90409109D01*
X155689996Y-90447623D01*
X155691851Y-90481381D01*
X155693486Y-90509100D01*
X155694842Y-90529494D01*
X155695856Y-90541279D01*
X155696233Y-90543594D01*
X155700983Y-90549506D01*
X155708792Y-90548246D01*
X155720307Y-90539335D01*
X155736175Y-90522294D01*
X155753410Y-90501260D01*
X155761661Y-90490742D01*
X155775936Y-90472435D01*
X155795785Y-90446921D01*
X155820757Y-90414781D01*
X155850400Y-90376597D01*
X155884264Y-90332951D01*
X155921896Y-90284424D01*
X155962847Y-90231598D01*
X156006664Y-90175055D01*
X156052897Y-90115377D01*
X156101095Y-90053144D01*
X156150806Y-89988940D01*
X156179207Y-89952250D01*
X156566271Y-89452187D01*
X156785664Y-89326052D01*
X156830036Y-89300428D01*
X156871829Y-89276075D01*
X156910098Y-89253559D01*
X156943893Y-89233450D01*
X156972266Y-89216315D01*
X156994270Y-89202721D01*
X157008957Y-89193237D01*
X157015344Y-89188469D01*
X157024317Y-89176393D01*
X157029206Y-89166959D01*
X157029853Y-89159207D01*
X157029921Y-89142218D01*
X157029474Y-89117318D01*
X157028576Y-89085835D01*
X157027290Y-89049095D01*
X157025680Y-89008426D01*
X157023808Y-88965153D01*
X157021740Y-88920605D01*
X157019537Y-88876107D01*
X157017264Y-88832986D01*
X157014983Y-88792569D01*
X157012759Y-88756184D01*
X157010655Y-88725156D01*
X157008734Y-88700813D01*
X157007060Y-88684481D01*
X157005806Y-88677703D01*
X156998372Y-88668313D01*
X156990625Y-88667788D01*
X156984070Y-88670917D01*
X156969370Y-88678806D01*
X156947525Y-88690889D01*
X156919538Y-88706603D01*
X156886409Y-88725384D01*
X156849141Y-88746668D01*
X156808735Y-88769891D01*
X156785723Y-88783178D01*
X156743223Y-88807735D01*
X156702657Y-88831132D01*
X156665141Y-88852729D01*
X156631793Y-88871883D01*
X156603728Y-88887955D01*
X156582064Y-88900303D01*
X156567916Y-88908286D01*
X156564187Y-88910345D01*
X156537729Y-88924691D01*
X156089291Y-88879351D01*
X156007841Y-88871065D01*
X155936296Y-88863735D01*
X155874021Y-88857386D01*
X155820379Y-88852039D01*
X155774734Y-88847719D01*
X155736451Y-88844446D01*
X155704892Y-88842245D01*
X155679422Y-88841139D01*
X155659404Y-88841149D01*
X155644202Y-88842300D01*
X155633180Y-88844613D01*
X155625701Y-88848112D01*
X155621131Y-88852820D01*
X155618831Y-88858759D01*
X155618167Y-88865953D01*
X155128585Y-88865953D01*
X155140469Y-88843646D01*
X155213266Y-88723357D01*
X155291742Y-88608747D01*
X155375376Y-88500258D01*
X155463649Y-88398333D01*
X155556042Y-88303415D01*
X155652036Y-88215945D01*
X155751110Y-88136365D01*
X155852747Y-88065119D01*
X155956426Y-88002649D01*
X156061628Y-87949396D01*
X156167834Y-87905803D01*
X156274524Y-87872313D01*
X156283729Y-87869913D01*
X156384223Y-87848639D01*
X156482845Y-87836729D01*
X156578940Y-87834177D01*
X156671852Y-87840975D01*
X156760924Y-87857118D01*
X156825473Y-87875573D01*
X156865060Y-87889515D01*
X156899426Y-87903453D01*
X156930656Y-87918615D01*
X156960835Y-87936228D01*
X156992049Y-87957518D01*
X157026380Y-87983712D01*
X157065915Y-88016037D01*
X157070102Y-88019543D01*
X157098150Y-88042930D01*
X157124752Y-88064862D01*
X157148414Y-88084126D01*
X157167639Y-88099509D01*
X157180934Y-88109799D01*
X157184501Y-88112386D01*
X157205735Y-88127101D01*
X157598013Y-87922153D01*
X157990291Y-87717206D01*
X157990291Y-86307502D01*
X158200635Y-86192350D01*
X158243975Y-86168624D01*
X158284455Y-86146465D01*
X158321132Y-86126388D01*
X158353063Y-86108911D01*
X158379303Y-86094549D01*
X158398909Y-86083820D01*
X158410937Y-86077240D01*
X158414475Y-86075308D01*
X158418540Y-86078892D01*
G36*
X149949146Y-86060882D02*
G01*
X149957934Y-86064913D01*
X149970480Y-86071835D01*
X149987569Y-86082112D01*
X150009989Y-86096210D01*
X150038527Y-86114591D01*
X150073970Y-86137722D01*
X150117105Y-86166065D01*
X150137458Y-86179471D01*
X150178480Y-86206528D01*
X150217194Y-86232101D01*
X150252612Y-86255536D01*
X150283747Y-86276178D01*
X150309612Y-86293371D01*
X150329218Y-86306461D01*
X150341578Y-86314792D01*
X150345156Y-86317270D01*
X150359708Y-86327775D01*
X150360168Y-90563437D01*
X150949959Y-90900363D01*
X151539750Y-91237290D01*
X151539750Y-90385072D01*
X151506189Y-90344609D01*
X151420212Y-90234521D01*
X151340973Y-90120006D01*
X151268660Y-90001736D01*
X151203457Y-89880385D01*
X151145549Y-89756627D01*
X151095124Y-89631135D01*
X151052365Y-89504582D01*
X151017459Y-89377642D01*
X150990590Y-89250988D01*
X150971946Y-89125294D01*
X150961711Y-89001233D01*
X150960070Y-88879479D01*
X150967210Y-88760705D01*
X150983315Y-88645584D01*
X151008060Y-88536651D01*
X151038319Y-88441095D01*
X151059632Y-88389826D01*
X151516180Y-88389826D01*
X151517268Y-88404314D01*
X151519909Y-88413117D01*
X151522891Y-88420831D01*
X151529641Y-88437725D01*
X151539911Y-88463188D01*
X151553453Y-88496609D01*
X151570016Y-88537377D01*
X151589352Y-88584881D01*
X151611213Y-88638510D01*
X151635347Y-88697653D01*
X151661508Y-88761700D01*
X151689446Y-88830038D01*
X151718911Y-88902058D01*
X151749654Y-88977149D01*
X151781428Y-89054698D01*
X151782542Y-89057417D01*
X152037166Y-89678647D01*
X152037166Y-90199393D01*
X152049072Y-90216572D01*
X152053718Y-90221716D01*
X152061709Y-90228119D01*
X152073824Y-90236221D01*
X152090838Y-90246462D01*
X152113528Y-90259281D01*
X152142670Y-90275119D01*
X152179041Y-90294416D01*
X152223417Y-90317610D01*
X152270000Y-90341747D01*
X152327911Y-90371477D01*
X152377383Y-90396466D01*
X152418270Y-90416646D01*
X152450427Y-90431946D01*
X152473709Y-90442297D01*
X152487972Y-90447629D01*
X152492250Y-90448382D01*
X152505479Y-90447021D01*
X152508125Y-90182437D01*
X152510770Y-89917854D01*
X152772046Y-89555709D01*
X152825420Y-89481575D01*
X152872802Y-89415441D01*
X152914150Y-89357364D01*
X152949422Y-89307405D01*
X152978579Y-89265622D01*
X153001579Y-89232074D01*
X153018380Y-89206821D01*
X153028941Y-89189921D01*
X153033222Y-89181434D01*
X153033322Y-89180809D01*
X153029623Y-89167255D01*
X153023401Y-89158296D01*
X153015809Y-89153018D01*
X153000073Y-89143760D01*
X152977298Y-89131084D01*
X152948589Y-89115556D01*
X152915051Y-89097739D01*
X152877789Y-89078199D01*
X152837910Y-89057499D01*
X152796518Y-89036203D01*
X152754718Y-89014877D01*
X152713617Y-88994084D01*
X152674319Y-88974389D01*
X152637929Y-88956356D01*
X152605553Y-88940549D01*
X152578297Y-88927533D01*
X152557265Y-88917873D01*
X152543563Y-88912132D01*
X152538548Y-88910747D01*
X152534729Y-88912772D01*
X152529268Y-88918414D01*
X152521731Y-88928364D01*
X152511685Y-88943316D01*
X152498694Y-88963960D01*
X152482325Y-88990988D01*
X152462144Y-89025091D01*
X152437717Y-89066963D01*
X152408610Y-89117293D01*
X152404685Y-89124104D01*
X152377896Y-89170318D01*
X152353187Y-89212399D01*
X152331029Y-89249581D01*
X152311891Y-89281096D01*
X152296242Y-89306177D01*
X152284552Y-89324055D01*
X152277289Y-89333965D01*
X152275196Y-89335771D01*
X152271944Y-89331450D01*
X152265758Y-89318377D01*
X152256573Y-89296385D01*
X152244326Y-89265305D01*
X152228952Y-89224969D01*
X152210386Y-89175212D01*
X152188566Y-89115865D01*
X152163425Y-89046760D01*
X152148344Y-89005042D01*
X152127774Y-88948074D01*
X152108110Y-88893688D01*
X152089669Y-88842760D01*
X152072770Y-88796167D01*
X152057732Y-88754786D01*
X152044873Y-88719493D01*
X152034513Y-88691164D01*
X152026969Y-88670677D01*
X152022561Y-88658907D01*
X152021729Y-88656792D01*
X152012277Y-88641462D01*
X151999120Y-88627834D01*
X151998026Y-88626991D01*
X151990820Y-88622658D01*
X151975352Y-88614086D01*
X151952771Y-88601876D01*
X151924229Y-88586626D01*
X151890873Y-88568939D01*
X151853855Y-88549414D01*
X151814324Y-88528652D01*
X151773429Y-88507253D01*
X151732322Y-88485817D01*
X151692151Y-88464945D01*
X151654066Y-88445237D01*
X151619218Y-88427294D01*
X151588756Y-88411716D01*
X151563830Y-88399104D01*
X151545589Y-88390057D01*
X151535185Y-88385176D01*
X151533978Y-88384690D01*
X151521796Y-88383193D01*
X151516180Y-88389826D01*
X151059632Y-88389826D01*
X151074729Y-88353512D01*
X151117864Y-88272883D01*
X151168299Y-88198186D01*
X151226610Y-88128400D01*
X151253881Y-88100014D01*
X151318486Y-88040908D01*
X151385244Y-87991159D01*
X151455622Y-87949977D01*
X151531085Y-87916571D01*
X151613102Y-87890148D01*
X151666750Y-87877170D01*
X151686855Y-87873111D01*
X151705686Y-87870066D01*
X151725300Y-87867894D01*
X151747757Y-87866453D01*
X151775116Y-87865599D01*
X151809435Y-87865191D01*
X151841375Y-87865091D01*
X151889094Y-87865335D01*
X151928913Y-87866377D01*
X151963501Y-87868527D01*
X151995530Y-87872097D01*
X152027670Y-87877398D01*
X152062592Y-87884741D01*
X152102968Y-87894437D01*
X152111362Y-87896542D01*
X152201372Y-87923204D01*
X152294351Y-87958281D01*
X152388317Y-88000835D01*
X152481292Y-88049924D01*
X152571295Y-88104609D01*
X152621895Y-88138902D01*
X152735968Y-88225745D01*
X152845134Y-88321484D01*
X152948905Y-88425396D01*
X153046790Y-88536761D01*
X153138300Y-88654854D01*
X153222944Y-88778955D01*
X153300232Y-88908340D01*
X153369675Y-89042289D01*
X153430782Y-89180078D01*
X153483063Y-89320985D01*
X153526029Y-89464289D01*
X153529092Y-89476000D01*
X153550183Y-89563919D01*
X153566353Y-89646678D01*
X153578009Y-89727527D01*
X153585558Y-89809714D01*
X153589408Y-89896488D01*
X153590119Y-89962833D01*
X153589691Y-90020407D01*
X153588382Y-90069829D01*
X153585954Y-90113511D01*
X153582171Y-90153866D01*
X153576795Y-90193306D01*
X153569587Y-90234243D01*
X153560311Y-90279090D01*
X153557882Y-90290114D01*
X153531527Y-90388069D01*
X153497360Y-90480923D01*
X153455798Y-90568117D01*
X153407259Y-90649091D01*
X153352160Y-90723284D01*
X153290917Y-90790136D01*
X153223948Y-90849087D01*
X153151670Y-90899578D01*
X153074500Y-90941048D01*
X153072341Y-90942043D01*
X153021416Y-90965403D01*
X153021538Y-91539649D01*
X153021659Y-92113896D01*
X153516308Y-92401877D01*
X154010958Y-92689859D01*
X154010958Y-93185458D01*
X153951427Y-93184793D01*
X153924221Y-93184083D01*
X153890211Y-93182588D01*
X153853129Y-93180504D01*
X153816710Y-93178027D01*
X153804672Y-93177092D01*
X153575603Y-93153467D01*
X153349883Y-93119843D01*
X153127628Y-93076262D01*
X152908951Y-93022768D01*
X152693967Y-92959403D01*
X152482792Y-92886212D01*
X152275539Y-92803237D01*
X152072325Y-92710522D01*
X151873262Y-92608110D01*
X151678467Y-92496044D01*
X151488054Y-92374367D01*
X151302137Y-92243123D01*
X151277812Y-92224991D01*
X151193051Y-92160152D01*
X151112840Y-92096046D01*
X151035464Y-92031156D01*
X150959208Y-91963964D01*
X150882356Y-91892949D01*
X150803192Y-91816595D01*
X150720002Y-91733382D01*
X150703432Y-91716499D01*
X150556647Y-91559074D01*
X150416810Y-91393958D01*
X150284240Y-91221710D01*
X150159256Y-91042891D01*
X150042180Y-90858060D01*
X149933330Y-90667779D01*
X149833026Y-90472606D01*
X149741588Y-90273101D01*
X149659337Y-90069825D01*
X149586591Y-89863338D01*
X149523670Y-89654200D01*
X149521846Y-89647556D01*
X149467491Y-89429017D01*
X149423443Y-89208402D01*
X149389723Y-88986122D01*
X149366351Y-88762589D01*
X149353348Y-88538214D01*
X149350734Y-88313410D01*
X149358530Y-88088587D01*
X149376756Y-87864159D01*
X149405434Y-87640536D01*
X149417855Y-87563062D01*
X149460462Y-87341392D01*
X149512891Y-87123569D01*
X149575243Y-86909245D01*
X149647625Y-86698071D01*
X149730141Y-86489697D01*
X149760243Y-86420062D01*
X149771422Y-86395330D01*
X149785471Y-86365174D01*
X149801721Y-86330942D01*
X149819506Y-86293984D01*
X149838159Y-86255650D01*
X149857014Y-86217287D01*
X149875404Y-86180244D01*
X149892663Y-86145872D01*
X149908123Y-86115519D01*
X149921118Y-86090533D01*
X149930982Y-86072264D01*
X149937047Y-86062061D01*
X149937449Y-86061496D01*
X149939690Y-86059638D01*
X149943327Y-86059279D01*
X149949146Y-86060882D01*
G37*
X149949146Y-86060882D02*
X149957934Y-86064913D01*
X149970480Y-86071835D01*
X149987569Y-86082112D01*
X150009989Y-86096210D01*
X150038527Y-86114591D01*
X150073970Y-86137722D01*
X150117105Y-86166065D01*
X150137458Y-86179471D01*
X150178480Y-86206528D01*
X150217194Y-86232101D01*
X150252612Y-86255536D01*
X150283747Y-86276178D01*
X150309612Y-86293371D01*
X150329218Y-86306461D01*
X150341578Y-86314792D01*
X150345156Y-86317270D01*
X150359708Y-86327775D01*
X150360168Y-90563437D01*
X150949959Y-90900363D01*
X151539750Y-91237290D01*
X151539750Y-90385072D01*
X151506189Y-90344609D01*
X151420212Y-90234521D01*
X151340973Y-90120006D01*
X151268660Y-90001736D01*
X151203457Y-89880385D01*
X151145549Y-89756627D01*
X151095124Y-89631135D01*
X151052365Y-89504582D01*
X151017459Y-89377642D01*
X150990590Y-89250988D01*
X150971946Y-89125294D01*
X150961711Y-89001233D01*
X150960070Y-88879479D01*
X150967210Y-88760705D01*
X150983315Y-88645584D01*
X151008060Y-88536651D01*
X151038319Y-88441095D01*
X151059632Y-88389826D01*
X151516180Y-88389826D01*
X151517268Y-88404314D01*
X151519909Y-88413117D01*
X151522891Y-88420831D01*
X151529641Y-88437725D01*
X151539911Y-88463188D01*
X151553453Y-88496609D01*
X151570016Y-88537377D01*
X151589352Y-88584881D01*
X151611213Y-88638510D01*
X151635347Y-88697653D01*
X151661508Y-88761700D01*
X151689446Y-88830038D01*
X151718911Y-88902058D01*
X151749654Y-88977149D01*
X151781428Y-89054698D01*
X151782542Y-89057417D01*
X152037166Y-89678647D01*
X152037166Y-90199393D01*
X152049072Y-90216572D01*
X152053718Y-90221716D01*
X152061709Y-90228119D01*
X152073824Y-90236221D01*
X152090838Y-90246462D01*
X152113528Y-90259281D01*
X152142670Y-90275119D01*
X152179041Y-90294416D01*
X152223417Y-90317610D01*
X152270000Y-90341747D01*
X152327911Y-90371477D01*
X152377383Y-90396466D01*
X152418270Y-90416646D01*
X152450427Y-90431946D01*
X152473709Y-90442297D01*
X152487972Y-90447629D01*
X152492250Y-90448382D01*
X152505479Y-90447021D01*
X152508125Y-90182437D01*
X152510770Y-89917854D01*
X152772046Y-89555709D01*
X152825420Y-89481575D01*
X152872802Y-89415441D01*
X152914150Y-89357364D01*
X152949422Y-89307405D01*
X152978579Y-89265622D01*
X153001579Y-89232074D01*
X153018380Y-89206821D01*
X153028941Y-89189921D01*
X153033222Y-89181434D01*
X153033322Y-89180809D01*
X153029623Y-89167255D01*
X153023401Y-89158296D01*
X153015809Y-89153018D01*
X153000073Y-89143760D01*
X152977298Y-89131084D01*
X152948589Y-89115556D01*
X152915051Y-89097739D01*
X152877789Y-89078199D01*
X152837910Y-89057499D01*
X152796518Y-89036203D01*
X152754718Y-89014877D01*
X152713617Y-88994084D01*
X152674319Y-88974389D01*
X152637929Y-88956356D01*
X152605553Y-88940549D01*
X152578297Y-88927533D01*
X152557265Y-88917873D01*
X152543563Y-88912132D01*
X152538548Y-88910747D01*
X152534729Y-88912772D01*
X152529268Y-88918414D01*
X152521731Y-88928364D01*
X152511685Y-88943316D01*
X152498694Y-88963960D01*
X152482325Y-88990988D01*
X152462144Y-89025091D01*
X152437717Y-89066963D01*
X152408610Y-89117293D01*
X152404685Y-89124104D01*
X152377896Y-89170318D01*
X152353187Y-89212399D01*
X152331029Y-89249581D01*
X152311891Y-89281096D01*
X152296242Y-89306177D01*
X152284552Y-89324055D01*
X152277289Y-89333965D01*
X152275196Y-89335771D01*
X152271944Y-89331450D01*
X152265758Y-89318377D01*
X152256573Y-89296385D01*
X152244326Y-89265305D01*
X152228952Y-89224969D01*
X152210386Y-89175212D01*
X152188566Y-89115865D01*
X152163425Y-89046760D01*
X152148344Y-89005042D01*
X152127774Y-88948074D01*
X152108110Y-88893688D01*
X152089669Y-88842760D01*
X152072770Y-88796167D01*
X152057732Y-88754786D01*
X152044873Y-88719493D01*
X152034513Y-88691164D01*
X152026969Y-88670677D01*
X152022561Y-88658907D01*
X152021729Y-88656792D01*
X152012277Y-88641462D01*
X151999120Y-88627834D01*
X151998026Y-88626991D01*
X151990820Y-88622658D01*
X151975352Y-88614086D01*
X151952771Y-88601876D01*
X151924229Y-88586626D01*
X151890873Y-88568939D01*
X151853855Y-88549414D01*
X151814324Y-88528652D01*
X151773429Y-88507253D01*
X151732322Y-88485817D01*
X151692151Y-88464945D01*
X151654066Y-88445237D01*
X151619218Y-88427294D01*
X151588756Y-88411716D01*
X151563830Y-88399104D01*
X151545589Y-88390057D01*
X151535185Y-88385176D01*
X151533978Y-88384690D01*
X151521796Y-88383193D01*
X151516180Y-88389826D01*
X151059632Y-88389826D01*
X151074729Y-88353512D01*
X151117864Y-88272883D01*
X151168299Y-88198186D01*
X151226610Y-88128400D01*
X151253881Y-88100014D01*
X151318486Y-88040908D01*
X151385244Y-87991159D01*
X151455622Y-87949977D01*
X151531085Y-87916571D01*
X151613102Y-87890148D01*
X151666750Y-87877170D01*
X151686855Y-87873111D01*
X151705686Y-87870066D01*
X151725300Y-87867894D01*
X151747757Y-87866453D01*
X151775116Y-87865599D01*
X151809435Y-87865191D01*
X151841375Y-87865091D01*
X151889094Y-87865335D01*
X151928913Y-87866377D01*
X151963501Y-87868527D01*
X151995530Y-87872097D01*
X152027670Y-87877398D01*
X152062592Y-87884741D01*
X152102968Y-87894437D01*
X152111362Y-87896542D01*
X152201372Y-87923204D01*
X152294351Y-87958281D01*
X152388317Y-88000835D01*
X152481292Y-88049924D01*
X152571295Y-88104609D01*
X152621895Y-88138902D01*
X152735968Y-88225745D01*
X152845134Y-88321484D01*
X152948905Y-88425396D01*
X153046790Y-88536761D01*
X153138300Y-88654854D01*
X153222944Y-88778955D01*
X153300232Y-88908340D01*
X153369675Y-89042289D01*
X153430782Y-89180078D01*
X153483063Y-89320985D01*
X153526029Y-89464289D01*
X153529092Y-89476000D01*
X153550183Y-89563919D01*
X153566353Y-89646678D01*
X153578009Y-89727527D01*
X153585558Y-89809714D01*
X153589408Y-89896488D01*
X153590119Y-89962833D01*
X153589691Y-90020407D01*
X153588382Y-90069829D01*
X153585954Y-90113511D01*
X153582171Y-90153866D01*
X153576795Y-90193306D01*
X153569587Y-90234243D01*
X153560311Y-90279090D01*
X153557882Y-90290114D01*
X153531527Y-90388069D01*
X153497360Y-90480923D01*
X153455798Y-90568117D01*
X153407259Y-90649091D01*
X153352160Y-90723284D01*
X153290917Y-90790136D01*
X153223948Y-90849087D01*
X153151670Y-90899578D01*
X153074500Y-90941048D01*
X153072341Y-90942043D01*
X153021416Y-90965403D01*
X153021538Y-91539649D01*
X153021659Y-92113896D01*
X153516308Y-92401877D01*
X154010958Y-92689859D01*
X154010958Y-93185458D01*
X153951427Y-93184793D01*
X153924221Y-93184083D01*
X153890211Y-93182588D01*
X153853129Y-93180504D01*
X153816710Y-93178027D01*
X153804672Y-93177092D01*
X153575603Y-93153467D01*
X153349883Y-93119843D01*
X153127628Y-93076262D01*
X152908951Y-93022768D01*
X152693967Y-92959403D01*
X152482792Y-92886212D01*
X152275539Y-92803237D01*
X152072325Y-92710522D01*
X151873262Y-92608110D01*
X151678467Y-92496044D01*
X151488054Y-92374367D01*
X151302137Y-92243123D01*
X151277812Y-92224991D01*
X151193051Y-92160152D01*
X151112840Y-92096046D01*
X151035464Y-92031156D01*
X150959208Y-91963964D01*
X150882356Y-91892949D01*
X150803192Y-91816595D01*
X150720002Y-91733382D01*
X150703432Y-91716499D01*
X150556647Y-91559074D01*
X150416810Y-91393958D01*
X150284240Y-91221710D01*
X150159256Y-91042891D01*
X150042180Y-90858060D01*
X149933330Y-90667779D01*
X149833026Y-90472606D01*
X149741588Y-90273101D01*
X149659337Y-90069825D01*
X149586591Y-89863338D01*
X149523670Y-89654200D01*
X149521846Y-89647556D01*
X149467491Y-89429017D01*
X149423443Y-89208402D01*
X149389723Y-88986122D01*
X149366351Y-88762589D01*
X149353348Y-88538214D01*
X149350734Y-88313410D01*
X149358530Y-88088587D01*
X149376756Y-87864159D01*
X149405434Y-87640536D01*
X149417855Y-87563062D01*
X149460462Y-87341392D01*
X149512891Y-87123569D01*
X149575243Y-86909245D01*
X149647625Y-86698071D01*
X149730141Y-86489697D01*
X149760243Y-86420062D01*
X149771422Y-86395330D01*
X149785471Y-86365174D01*
X149801721Y-86330942D01*
X149819506Y-86293984D01*
X149838159Y-86255650D01*
X149857014Y-86217287D01*
X149875404Y-86180244D01*
X149892663Y-86145872D01*
X149908123Y-86115519D01*
X149921118Y-86090533D01*
X149930982Y-86072264D01*
X149937047Y-86062061D01*
X149937449Y-86061496D01*
X149939690Y-86059638D01*
X149943327Y-86059279D01*
X149949146Y-86060882D01*
G36*
X154259239Y-83547020D02*
G01*
X154317923Y-83547597D01*
X154372907Y-83548484D01*
X154422602Y-83549679D01*
X154465423Y-83551184D01*
X154499782Y-83552998D01*
X154508375Y-83553616D01*
X154738469Y-83576458D01*
X154963916Y-83608759D01*
X155184969Y-83650600D01*
X155401886Y-83702064D01*
X155614921Y-83763230D01*
X155824331Y-83834179D01*
X156030371Y-83914994D01*
X156233297Y-84005754D01*
X156433365Y-84106540D01*
X156630830Y-84217435D01*
X156662083Y-84236051D01*
X156840792Y-84348569D01*
X157012212Y-84467300D01*
X157177508Y-84593158D01*
X157337846Y-84727055D01*
X157494392Y-84869904D01*
X157585887Y-84959193D01*
X157672278Y-85047256D01*
X157751828Y-85132087D01*
X157826639Y-85216104D01*
X157898819Y-85301727D01*
X157970472Y-85391375D01*
X158032133Y-85472012D01*
X158054554Y-85502322D01*
X158079010Y-85536181D01*
X158104834Y-85572592D01*
X158131359Y-85610560D01*
X158157917Y-85649088D01*
X158183840Y-85687182D01*
X158208460Y-85723845D01*
X158231111Y-85758082D01*
X158251123Y-85788897D01*
X158267831Y-85815295D01*
X158280566Y-85836279D01*
X158288661Y-85850854D01*
X158291448Y-85858024D01*
X158291269Y-85858520D01*
X158286360Y-85861312D01*
X158273098Y-85868665D01*
X158252419Y-85880065D01*
X158225259Y-85894999D01*
X158192553Y-85912953D01*
X158155235Y-85933414D01*
X158114241Y-85955866D01*
X158078802Y-85975260D01*
X157868333Y-86090391D01*
X157832739Y-86069332D01*
X157822107Y-86063092D01*
X157803181Y-86052037D01*
X157776820Y-86036668D01*
X157743882Y-86017485D01*
X157705227Y-85994988D01*
X157661713Y-85969676D01*
X157614199Y-85942048D01*
X157563544Y-85912606D01*
X157510606Y-85881847D01*
X157484937Y-85866937D01*
X157419990Y-85829212D01*
X157348157Y-85787484D01*
X157271586Y-85743001D01*
X157192421Y-85697008D01*
X157112808Y-85650752D01*
X157034893Y-85605479D01*
X156960821Y-85562438D01*
X156892738Y-85522873D01*
X156863166Y-85505687D01*
X156801670Y-85469947D01*
X156732939Y-85430003D01*
X156658889Y-85386969D01*
X156581436Y-85341958D01*
X156502495Y-85296083D01*
X156423982Y-85250458D01*
X156347812Y-85206196D01*
X156275903Y-85164410D01*
X156214937Y-85128984D01*
X156161990Y-85098218D01*
X156101083Y-85062826D01*
X156033403Y-85023499D01*
X155960141Y-84980929D01*
X155882485Y-84935805D01*
X155801626Y-84888820D01*
X155718753Y-84840665D01*
X155635054Y-84792030D01*
X155551720Y-84743607D01*
X155469940Y-84696086D01*
X155390903Y-84650160D01*
X155352395Y-84627784D01*
X155275596Y-84583157D01*
X155195729Y-84536746D01*
X155113953Y-84489223D01*
X155031428Y-84441263D01*
X154949310Y-84393539D01*
X154868761Y-84346725D01*
X154790938Y-84301494D01*
X154717000Y-84258519D01*
X154648106Y-84218474D01*
X154585415Y-84182033D01*
X154530086Y-84149869D01*
X154503498Y-84134411D01*
X154449668Y-84103213D01*
X154398391Y-84073685D01*
X154350418Y-84046246D01*
X154306497Y-84021316D01*
X154267378Y-83999315D01*
X154233810Y-83980663D01*
X154206543Y-83965779D01*
X154186326Y-83955082D01*
X154173907Y-83948993D01*
X154170123Y-83947710D01*
X154164635Y-83950549D01*
X154150618Y-83958271D01*
X154128724Y-83970506D01*
X154099605Y-83986881D01*
X154063915Y-84007025D01*
X154022305Y-84030564D01*
X153975428Y-84057128D01*
X153923937Y-84086344D01*
X153868484Y-84117840D01*
X153809722Y-84151243D01*
X153748304Y-84186183D01*
X153684881Y-84222286D01*
X153620108Y-84259182D01*
X153554635Y-84296497D01*
X153489116Y-84333860D01*
X153424203Y-84370898D01*
X153360549Y-84407241D01*
X153298807Y-84442515D01*
X153239628Y-84476348D01*
X153183666Y-84508369D01*
X153131573Y-84538206D01*
X153084002Y-84565486D01*
X153041605Y-84589837D01*
X153005035Y-84610888D01*
X152974944Y-84628266D01*
X152951985Y-84641599D01*
X152936810Y-84650516D01*
X152930073Y-84654643D01*
X152929811Y-84654845D01*
X152933356Y-84658385D01*
X152945073Y-84667083D01*
X152964198Y-84680426D01*
X152989963Y-84697904D01*
X153021605Y-84719006D01*
X153058356Y-84743222D01*
X153099453Y-84770040D01*
X153144128Y-84798949D01*
X153186728Y-84826310D01*
X153447939Y-84993505D01*
X153544477Y-84975447D01*
X153696808Y-84949696D01*
X153842239Y-84930824D01*
X153981865Y-84918776D01*
X154116780Y-84913500D01*
X154248082Y-84914941D01*
X154376864Y-84923044D01*
X154450166Y-84930695D01*
X154577114Y-84949705D01*
X154701654Y-84975940D01*
X154822628Y-85009002D01*
X154938877Y-85048496D01*
X155049241Y-85094027D01*
X155152560Y-85145199D01*
X155247676Y-85201616D01*
X155251854Y-85204343D01*
X155346209Y-85271658D01*
X155431484Y-85343878D01*
X155507569Y-85420846D01*
X155574355Y-85502408D01*
X155631731Y-85588409D01*
X155679589Y-85678694D01*
X155717818Y-85773107D01*
X155746309Y-85871495D01*
X155755985Y-85917354D01*
X155760165Y-85947349D01*
X155763154Y-85984681D01*
X155764957Y-86026855D01*
X155765577Y-86071379D01*
X155765019Y-86115760D01*
X155763285Y-86157505D01*
X155760379Y-86194120D01*
X155756305Y-86223112D01*
X155755537Y-86226917D01*
X155731129Y-86316171D01*
X155696589Y-86403739D01*
X155652293Y-86489180D01*
X155598619Y-86572057D01*
X155535942Y-86651928D01*
X155464640Y-86728355D01*
X155385090Y-86800899D01*
X155297669Y-86869118D01*
X155202754Y-86932575D01*
X155100722Y-86990829D01*
X155100121Y-86991145D01*
X154976367Y-87050277D01*
X154846899Y-87100562D01*
X154711881Y-87141957D01*
X154571478Y-87174415D01*
X154425852Y-87197894D01*
X154294062Y-87211051D01*
X154263165Y-87212769D01*
X154225187Y-87214080D01*
X154182791Y-87214965D01*
X154138641Y-87215405D01*
X154095398Y-87215384D01*
X154055728Y-87214883D01*
X154022291Y-87213885D01*
X154005666Y-87212994D01*
X153902835Y-87204964D01*
X153808377Y-87195235D01*
X153720166Y-87183435D01*
X153636075Y-87169190D01*
X153553977Y-87152128D01*
X153471745Y-87131878D01*
X153387253Y-87108065D01*
X153360267Y-87099901D01*
X153241320Y-87059683D01*
X153127635Y-87013837D01*
X153019744Y-86962746D01*
X152918181Y-86906793D01*
X152823479Y-86846364D01*
X152736171Y-86781841D01*
X152656791Y-86713609D01*
X152585870Y-86642052D01*
X152523942Y-86567554D01*
X152471540Y-86490498D01*
X152442732Y-86439011D01*
X152412730Y-86375784D01*
X152389985Y-86316280D01*
X152373675Y-86257384D01*
X152362982Y-86195981D01*
X152357086Y-86128955D01*
X152356247Y-86110500D01*
X152355759Y-86085397D01*
X152355874Y-86054342D01*
X152356511Y-86019240D01*
X152357592Y-85981996D01*
X152359038Y-85944514D01*
X152360767Y-85908700D01*
X152362702Y-85876458D01*
X152364761Y-85849695D01*
X152366867Y-85830313D01*
X152368284Y-85822323D01*
X152367913Y-85819817D01*
X152365366Y-85816317D01*
X152360080Y-85811469D01*
X152351489Y-85804919D01*
X152339028Y-85796313D01*
X152322132Y-85785296D01*
X152300237Y-85771515D01*
X152272778Y-85754616D01*
X152239190Y-85734244D01*
X152224095Y-85725176D01*
X152964854Y-85725176D01*
X152965917Y-85727126D01*
X152971430Y-85731318D01*
X152985219Y-85740214D01*
X153006371Y-85753269D01*
X153033975Y-85769935D01*
X153067118Y-85789667D01*
X153104888Y-85811917D01*
X153146371Y-85836139D01*
X153190655Y-85861788D01*
X153193328Y-85863329D01*
X153415510Y-85991437D01*
X153598949Y-86398695D01*
X153630068Y-86467597D01*
X153659285Y-86531920D01*
X153686340Y-86591106D01*
X153710973Y-86644598D01*
X153732921Y-86691837D01*
X153751925Y-86732266D01*
X153767723Y-86765325D01*
X153780055Y-86790458D01*
X153788659Y-86807106D01*
X153793275Y-86814711D01*
X153793581Y-86815017D01*
X153806308Y-86821225D01*
X153819946Y-86819730D01*
X153827527Y-86816013D01*
X153842996Y-86807168D01*
X153865349Y-86793809D01*
X153893587Y-86776552D01*
X153926706Y-86756012D01*
X153963705Y-86732804D01*
X154003582Y-86707544D01*
X154027548Y-86692250D01*
X154080697Y-86658239D01*
X154125633Y-86629462D01*
X154163057Y-86605443D01*
X154193671Y-86585710D01*
X154218174Y-86569789D01*
X154237268Y-86557205D01*
X154251654Y-86547486D01*
X154262032Y-86540158D01*
X154269102Y-86534747D01*
X154273567Y-86530779D01*
X154276126Y-86527781D01*
X154277480Y-86525279D01*
X154278330Y-86522799D01*
X154278355Y-86522721D01*
X154276907Y-86516119D01*
X154270656Y-86501904D01*
X154259479Y-86479845D01*
X154243251Y-86449711D01*
X154221846Y-86411271D01*
X154195142Y-86364295D01*
X154163013Y-86308552D01*
X154161446Y-86305848D01*
X154136611Y-86262886D01*
X154113398Y-86222499D01*
X154092352Y-86185657D01*
X154074023Y-86153328D01*
X154058957Y-86126481D01*
X154047701Y-86106086D01*
X154040803Y-86093110D01*
X154038802Y-86088769D01*
X154039493Y-86080318D01*
X154043414Y-86078625D01*
X154049717Y-86079516D01*
X154065574Y-86082131D01*
X154090123Y-86086320D01*
X154122501Y-86091930D01*
X154161846Y-86098811D01*
X154207296Y-86106812D01*
X154257989Y-86115782D01*
X154313063Y-86125569D01*
X154371655Y-86136022D01*
X154409891Y-86142865D01*
X154769136Y-86207229D01*
X154793536Y-86196768D01*
X154803247Y-86191661D01*
X154820577Y-86181555D01*
X154844404Y-86167165D01*
X154873601Y-86149208D01*
X154907046Y-86128400D01*
X154943614Y-86105458D01*
X154982180Y-86081096D01*
X155021621Y-86056032D01*
X155060812Y-86030981D01*
X155098629Y-86006659D01*
X155133947Y-85983783D01*
X155165643Y-85963068D01*
X155192591Y-85945231D01*
X155213669Y-85930987D01*
X155227751Y-85921053D01*
X155233140Y-85916772D01*
X155237787Y-85912371D01*
X155241382Y-85908546D01*
X155243224Y-85905146D01*
X155242615Y-85902024D01*
X155238856Y-85899029D01*
X155231246Y-85896013D01*
X155219087Y-85892826D01*
X155201680Y-85889320D01*
X155178324Y-85885346D01*
X155148321Y-85880754D01*
X155110971Y-85875396D01*
X155065574Y-85869121D01*
X155011433Y-85861782D01*
X154947846Y-85853229D01*
X154913187Y-85848571D01*
X154811771Y-85834920D01*
X154708017Y-85820924D01*
X154603504Y-85806797D01*
X154499811Y-85792755D01*
X154398517Y-85779010D01*
X154301200Y-85765778D01*
X154209440Y-85753272D01*
X154124814Y-85741708D01*
X154048902Y-85731298D01*
X154040062Y-85730083D01*
X153860145Y-85705345D01*
X153638751Y-85577177D01*
X153594232Y-85551484D01*
X153552211Y-85527386D01*
X153513634Y-85505414D01*
X153479444Y-85486099D01*
X153450586Y-85469971D01*
X153428003Y-85457562D01*
X153412641Y-85449401D01*
X153405443Y-85446021D01*
X153405346Y-85445994D01*
X153392546Y-85445990D01*
X153376852Y-85449922D01*
X153374588Y-85450813D01*
X153365542Y-85455589D01*
X153348877Y-85465368D01*
X153325769Y-85479398D01*
X153297396Y-85496930D01*
X153264933Y-85517213D01*
X153229558Y-85539495D01*
X153192447Y-85563025D01*
X153154778Y-85587054D01*
X153117726Y-85610829D01*
X153082469Y-85633601D01*
X153050183Y-85654618D01*
X153022045Y-85673129D01*
X152999232Y-85688384D01*
X152982921Y-85699632D01*
X152974287Y-85706121D01*
X152973854Y-85706515D01*
X152965193Y-85716993D01*
X152964854Y-85725176D01*
X152224095Y-85725176D01*
X152198907Y-85710045D01*
X152151366Y-85681666D01*
X152096001Y-85648753D01*
X152032247Y-85610951D01*
X152010557Y-85598104D01*
X151954010Y-85564699D01*
X151900025Y-85532962D01*
X151849303Y-85503294D01*
X151802542Y-85476098D01*
X151760443Y-85451776D01*
X151723707Y-85430732D01*
X151693034Y-85413366D01*
X151669123Y-85400081D01*
X151652674Y-85391280D01*
X151644389Y-85387365D01*
X151643570Y-85387212D01*
X151637932Y-85390382D01*
X151624122Y-85398574D01*
X151602987Y-85411275D01*
X151575375Y-85427971D01*
X151542133Y-85448147D01*
X151504107Y-85471291D01*
X151462147Y-85496887D01*
X151417099Y-85524422D01*
X151391256Y-85540241D01*
X151285897Y-85604768D01*
X151189186Y-85663989D01*
X151100749Y-85718131D01*
X151020212Y-85767419D01*
X150947199Y-85812076D01*
X150881335Y-85852329D01*
X150822246Y-85888403D01*
X150769556Y-85920522D01*
X150722892Y-85948912D01*
X150681877Y-85973798D01*
X150646138Y-85995404D01*
X150615300Y-86013957D01*
X150588987Y-86029681D01*
X150566825Y-86042801D01*
X150548438Y-86053542D01*
X150533453Y-86062130D01*
X150521494Y-86068789D01*
X150512187Y-86073745D01*
X150505156Y-86077222D01*
X150500027Y-86079447D01*
X150496425Y-86080643D01*
X150493975Y-86081036D01*
X150492302Y-86080851D01*
X150491507Y-86080552D01*
X150483797Y-86076239D01*
X150468647Y-86067119D01*
X150447135Y-86053879D01*
X150420340Y-86037204D01*
X150389341Y-86017780D01*
X150355217Y-85996294D01*
X150319047Y-85973429D01*
X150281910Y-85949873D01*
X150244885Y-85926311D01*
X150209052Y-85903429D01*
X150175488Y-85881913D01*
X150145274Y-85862447D01*
X150119487Y-85845719D01*
X150099208Y-85832414D01*
X150085514Y-85823218D01*
X150079485Y-85818816D01*
X150079294Y-85818567D01*
X150082112Y-85813432D01*
X150090102Y-85800639D01*
X150102531Y-85781315D01*
X150118669Y-85756584D01*
X150137783Y-85727575D01*
X150159143Y-85695412D01*
X150165239Y-85686275D01*
X150295831Y-85500105D01*
X150433925Y-85321357D01*
X150579356Y-85150158D01*
X150731955Y-84986640D01*
X150891554Y-84830931D01*
X151057988Y-84683160D01*
X151231087Y-84543458D01*
X151410685Y-84411953D01*
X151596615Y-84288776D01*
X151788708Y-84174054D01*
X151986798Y-84067918D01*
X152190716Y-83970498D01*
X152400297Y-83881921D01*
X152592213Y-83810365D01*
X152793197Y-83745229D01*
X152998743Y-83688985D01*
X153209193Y-83641565D01*
X153424891Y-83602896D01*
X153646179Y-83572910D01*
X153846916Y-83553562D01*
X153878091Y-83551658D01*
X153918258Y-83550065D01*
X153965830Y-83548782D01*
X154019221Y-83547810D01*
X154076844Y-83547148D01*
X154137112Y-83546795D01*
X154198439Y-83546753D01*
X154259239Y-83547020D01*
G37*
X154259239Y-83547020D02*
X154317923Y-83547597D01*
X154372907Y-83548484D01*
X154422602Y-83549679D01*
X154465423Y-83551184D01*
X154499782Y-83552998D01*
X154508375Y-83553616D01*
X154738469Y-83576458D01*
X154963916Y-83608759D01*
X155184969Y-83650600D01*
X155401886Y-83702064D01*
X155614921Y-83763230D01*
X155824331Y-83834179D01*
X156030371Y-83914994D01*
X156233297Y-84005754D01*
X156433365Y-84106540D01*
X156630830Y-84217435D01*
X156662083Y-84236051D01*
X156840792Y-84348569D01*
X157012212Y-84467300D01*
X157177508Y-84593158D01*
X157337846Y-84727055D01*
X157494392Y-84869904D01*
X157585887Y-84959193D01*
X157672278Y-85047256D01*
X157751828Y-85132087D01*
X157826639Y-85216104D01*
X157898819Y-85301727D01*
X157970472Y-85391375D01*
X158032133Y-85472012D01*
X158054554Y-85502322D01*
X158079010Y-85536181D01*
X158104834Y-85572592D01*
X158131359Y-85610560D01*
X158157917Y-85649088D01*
X158183840Y-85687182D01*
X158208460Y-85723845D01*
X158231111Y-85758082D01*
X158251123Y-85788897D01*
X158267831Y-85815295D01*
X158280566Y-85836279D01*
X158288661Y-85850854D01*
X158291448Y-85858024D01*
X158291269Y-85858520D01*
X158286360Y-85861312D01*
X158273098Y-85868665D01*
X158252419Y-85880065D01*
X158225259Y-85894999D01*
X158192553Y-85912953D01*
X158155235Y-85933414D01*
X158114241Y-85955866D01*
X158078802Y-85975260D01*
X157868333Y-86090391D01*
X157832739Y-86069332D01*
X157822107Y-86063092D01*
X157803181Y-86052037D01*
X157776820Y-86036668D01*
X157743882Y-86017485D01*
X157705227Y-85994988D01*
X157661713Y-85969676D01*
X157614199Y-85942048D01*
X157563544Y-85912606D01*
X157510606Y-85881847D01*
X157484937Y-85866937D01*
X157419990Y-85829212D01*
X157348157Y-85787484D01*
X157271586Y-85743001D01*
X157192421Y-85697008D01*
X157112808Y-85650752D01*
X157034893Y-85605479D01*
X156960821Y-85562438D01*
X156892738Y-85522873D01*
X156863166Y-85505687D01*
X156801670Y-85469947D01*
X156732939Y-85430003D01*
X156658889Y-85386969D01*
X156581436Y-85341958D01*
X156502495Y-85296083D01*
X156423982Y-85250458D01*
X156347812Y-85206196D01*
X156275903Y-85164410D01*
X156214937Y-85128984D01*
X156161990Y-85098218D01*
X156101083Y-85062826D01*
X156033403Y-85023499D01*
X155960141Y-84980929D01*
X155882485Y-84935805D01*
X155801626Y-84888820D01*
X155718753Y-84840665D01*
X155635054Y-84792030D01*
X155551720Y-84743607D01*
X155469940Y-84696086D01*
X155390903Y-84650160D01*
X155352395Y-84627784D01*
X155275596Y-84583157D01*
X155195729Y-84536746D01*
X155113953Y-84489223D01*
X155031428Y-84441263D01*
X154949310Y-84393539D01*
X154868761Y-84346725D01*
X154790938Y-84301494D01*
X154717000Y-84258519D01*
X154648106Y-84218474D01*
X154585415Y-84182033D01*
X154530086Y-84149869D01*
X154503498Y-84134411D01*
X154449668Y-84103213D01*
X154398391Y-84073685D01*
X154350418Y-84046246D01*
X154306497Y-84021316D01*
X154267378Y-83999315D01*
X154233810Y-83980663D01*
X154206543Y-83965779D01*
X154186326Y-83955082D01*
X154173907Y-83948993D01*
X154170123Y-83947710D01*
X154164635Y-83950549D01*
X154150618Y-83958271D01*
X154128724Y-83970506D01*
X154099605Y-83986881D01*
X154063915Y-84007025D01*
X154022305Y-84030564D01*
X153975428Y-84057128D01*
X153923937Y-84086344D01*
X153868484Y-84117840D01*
X153809722Y-84151243D01*
X153748304Y-84186183D01*
X153684881Y-84222286D01*
X153620108Y-84259182D01*
X153554635Y-84296497D01*
X153489116Y-84333860D01*
X153424203Y-84370898D01*
X153360549Y-84407241D01*
X153298807Y-84442515D01*
X153239628Y-84476348D01*
X153183666Y-84508369D01*
X153131573Y-84538206D01*
X153084002Y-84565486D01*
X153041605Y-84589837D01*
X153005035Y-84610888D01*
X152974944Y-84628266D01*
X152951985Y-84641599D01*
X152936810Y-84650516D01*
X152930073Y-84654643D01*
X152929811Y-84654845D01*
X152933356Y-84658385D01*
X152945073Y-84667083D01*
X152964198Y-84680426D01*
X152989963Y-84697904D01*
X153021605Y-84719006D01*
X153058356Y-84743222D01*
X153099453Y-84770040D01*
X153144128Y-84798949D01*
X153186728Y-84826310D01*
X153447939Y-84993505D01*
X153544477Y-84975447D01*
X153696808Y-84949696D01*
X153842239Y-84930824D01*
X153981865Y-84918776D01*
X154116780Y-84913500D01*
X154248082Y-84914941D01*
X154376864Y-84923044D01*
X154450166Y-84930695D01*
X154577114Y-84949705D01*
X154701654Y-84975940D01*
X154822628Y-85009002D01*
X154938877Y-85048496D01*
X155049241Y-85094027D01*
X155152560Y-85145199D01*
X155247676Y-85201616D01*
X155251854Y-85204343D01*
X155346209Y-85271658D01*
X155431484Y-85343878D01*
X155507569Y-85420846D01*
X155574355Y-85502408D01*
X155631731Y-85588409D01*
X155679589Y-85678694D01*
X155717818Y-85773107D01*
X155746309Y-85871495D01*
X155755985Y-85917354D01*
X155760165Y-85947349D01*
X155763154Y-85984681D01*
X155764957Y-86026855D01*
X155765577Y-86071379D01*
X155765019Y-86115760D01*
X155763285Y-86157505D01*
X155760379Y-86194120D01*
X155756305Y-86223112D01*
X155755537Y-86226917D01*
X155731129Y-86316171D01*
X155696589Y-86403739D01*
X155652293Y-86489180D01*
X155598619Y-86572057D01*
X155535942Y-86651928D01*
X155464640Y-86728355D01*
X155385090Y-86800899D01*
X155297669Y-86869118D01*
X155202754Y-86932575D01*
X155100722Y-86990829D01*
X155100121Y-86991145D01*
X154976367Y-87050277D01*
X154846899Y-87100562D01*
X154711881Y-87141957D01*
X154571478Y-87174415D01*
X154425852Y-87197894D01*
X154294062Y-87211051D01*
X154263165Y-87212769D01*
X154225187Y-87214080D01*
X154182791Y-87214965D01*
X154138641Y-87215405D01*
X154095398Y-87215384D01*
X154055728Y-87214883D01*
X154022291Y-87213885D01*
X154005666Y-87212994D01*
X153902835Y-87204964D01*
X153808377Y-87195235D01*
X153720166Y-87183435D01*
X153636075Y-87169190D01*
X153553977Y-87152128D01*
X153471745Y-87131878D01*
X153387253Y-87108065D01*
X153360267Y-87099901D01*
X153241320Y-87059683D01*
X153127635Y-87013837D01*
X153019744Y-86962746D01*
X152918181Y-86906793D01*
X152823479Y-86846364D01*
X152736171Y-86781841D01*
X152656791Y-86713609D01*
X152585870Y-86642052D01*
X152523942Y-86567554D01*
X152471540Y-86490498D01*
X152442732Y-86439011D01*
X152412730Y-86375784D01*
X152389985Y-86316280D01*
X152373675Y-86257384D01*
X152362982Y-86195981D01*
X152357086Y-86128955D01*
X152356247Y-86110500D01*
X152355759Y-86085397D01*
X152355874Y-86054342D01*
X152356511Y-86019240D01*
X152357592Y-85981996D01*
X152359038Y-85944514D01*
X152360767Y-85908700D01*
X152362702Y-85876458D01*
X152364761Y-85849695D01*
X152366867Y-85830313D01*
X152368284Y-85822323D01*
X152367913Y-85819817D01*
X152365366Y-85816317D01*
X152360080Y-85811469D01*
X152351489Y-85804919D01*
X152339028Y-85796313D01*
X152322132Y-85785296D01*
X152300237Y-85771515D01*
X152272778Y-85754616D01*
X152239190Y-85734244D01*
X152224095Y-85725176D01*
X152964854Y-85725176D01*
X152965917Y-85727126D01*
X152971430Y-85731318D01*
X152985219Y-85740214D01*
X153006371Y-85753269D01*
X153033975Y-85769935D01*
X153067118Y-85789667D01*
X153104888Y-85811917D01*
X153146371Y-85836139D01*
X153190655Y-85861788D01*
X153193328Y-85863329D01*
X153415510Y-85991437D01*
X153598949Y-86398695D01*
X153630068Y-86467597D01*
X153659285Y-86531920D01*
X153686340Y-86591106D01*
X153710973Y-86644598D01*
X153732921Y-86691837D01*
X153751925Y-86732266D01*
X153767723Y-86765325D01*
X153780055Y-86790458D01*
X153788659Y-86807106D01*
X153793275Y-86814711D01*
X153793581Y-86815017D01*
X153806308Y-86821225D01*
X153819946Y-86819730D01*
X153827527Y-86816013D01*
X153842996Y-86807168D01*
X153865349Y-86793809D01*
X153893587Y-86776552D01*
X153926706Y-86756012D01*
X153963705Y-86732804D01*
X154003582Y-86707544D01*
X154027548Y-86692250D01*
X154080697Y-86658239D01*
X154125633Y-86629462D01*
X154163057Y-86605443D01*
X154193671Y-86585710D01*
X154218174Y-86569789D01*
X154237268Y-86557205D01*
X154251654Y-86547486D01*
X154262032Y-86540158D01*
X154269102Y-86534747D01*
X154273567Y-86530779D01*
X154276126Y-86527781D01*
X154277480Y-86525279D01*
X154278330Y-86522799D01*
X154278355Y-86522721D01*
X154276907Y-86516119D01*
X154270656Y-86501904D01*
X154259479Y-86479845D01*
X154243251Y-86449711D01*
X154221846Y-86411271D01*
X154195142Y-86364295D01*
X154163013Y-86308552D01*
X154161446Y-86305848D01*
X154136611Y-86262886D01*
X154113398Y-86222499D01*
X154092352Y-86185657D01*
X154074023Y-86153328D01*
X154058957Y-86126481D01*
X154047701Y-86106086D01*
X154040803Y-86093110D01*
X154038802Y-86088769D01*
X154039493Y-86080318D01*
X154043414Y-86078625D01*
X154049717Y-86079516D01*
X154065574Y-86082131D01*
X154090123Y-86086320D01*
X154122501Y-86091930D01*
X154161846Y-86098811D01*
X154207296Y-86106812D01*
X154257989Y-86115782D01*
X154313063Y-86125569D01*
X154371655Y-86136022D01*
X154409891Y-86142865D01*
X154769136Y-86207229D01*
X154793536Y-86196768D01*
X154803247Y-86191661D01*
X154820577Y-86181555D01*
X154844404Y-86167165D01*
X154873601Y-86149208D01*
X154907046Y-86128400D01*
X154943614Y-86105458D01*
X154982180Y-86081096D01*
X155021621Y-86056032D01*
X155060812Y-86030981D01*
X155098629Y-86006659D01*
X155133947Y-85983783D01*
X155165643Y-85963068D01*
X155192591Y-85945231D01*
X155213669Y-85930987D01*
X155227751Y-85921053D01*
X155233140Y-85916772D01*
X155237787Y-85912371D01*
X155241382Y-85908546D01*
X155243224Y-85905146D01*
X155242615Y-85902024D01*
X155238856Y-85899029D01*
X155231246Y-85896013D01*
X155219087Y-85892826D01*
X155201680Y-85889320D01*
X155178324Y-85885346D01*
X155148321Y-85880754D01*
X155110971Y-85875396D01*
X155065574Y-85869121D01*
X155011433Y-85861782D01*
X154947846Y-85853229D01*
X154913187Y-85848571D01*
X154811771Y-85834920D01*
X154708017Y-85820924D01*
X154603504Y-85806797D01*
X154499811Y-85792755D01*
X154398517Y-85779010D01*
X154301200Y-85765778D01*
X154209440Y-85753272D01*
X154124814Y-85741708D01*
X154048902Y-85731298D01*
X154040062Y-85730083D01*
X153860145Y-85705345D01*
X153638751Y-85577177D01*
X153594232Y-85551484D01*
X153552211Y-85527386D01*
X153513634Y-85505414D01*
X153479444Y-85486099D01*
X153450586Y-85469971D01*
X153428003Y-85457562D01*
X153412641Y-85449401D01*
X153405443Y-85446021D01*
X153405346Y-85445994D01*
X153392546Y-85445990D01*
X153376852Y-85449922D01*
X153374588Y-85450813D01*
X153365542Y-85455589D01*
X153348877Y-85465368D01*
X153325769Y-85479398D01*
X153297396Y-85496930D01*
X153264933Y-85517213D01*
X153229558Y-85539495D01*
X153192447Y-85563025D01*
X153154778Y-85587054D01*
X153117726Y-85610829D01*
X153082469Y-85633601D01*
X153050183Y-85654618D01*
X153022045Y-85673129D01*
X152999232Y-85688384D01*
X152982921Y-85699632D01*
X152974287Y-85706121D01*
X152973854Y-85706515D01*
X152965193Y-85716993D01*
X152964854Y-85725176D01*
X152224095Y-85725176D01*
X152198907Y-85710045D01*
X152151366Y-85681666D01*
X152096001Y-85648753D01*
X152032247Y-85610951D01*
X152010557Y-85598104D01*
X151954010Y-85564699D01*
X151900025Y-85532962D01*
X151849303Y-85503294D01*
X151802542Y-85476098D01*
X151760443Y-85451776D01*
X151723707Y-85430732D01*
X151693034Y-85413366D01*
X151669123Y-85400081D01*
X151652674Y-85391280D01*
X151644389Y-85387365D01*
X151643570Y-85387212D01*
X151637932Y-85390382D01*
X151624122Y-85398574D01*
X151602987Y-85411275D01*
X151575375Y-85427971D01*
X151542133Y-85448147D01*
X151504107Y-85471291D01*
X151462147Y-85496887D01*
X151417099Y-85524422D01*
X151391256Y-85540241D01*
X151285897Y-85604768D01*
X151189186Y-85663989D01*
X151100749Y-85718131D01*
X151020212Y-85767419D01*
X150947199Y-85812076D01*
X150881335Y-85852329D01*
X150822246Y-85888403D01*
X150769556Y-85920522D01*
X150722892Y-85948912D01*
X150681877Y-85973798D01*
X150646138Y-85995404D01*
X150615300Y-86013957D01*
X150588987Y-86029681D01*
X150566825Y-86042801D01*
X150548438Y-86053542D01*
X150533453Y-86062130D01*
X150521494Y-86068789D01*
X150512187Y-86073745D01*
X150505156Y-86077222D01*
X150500027Y-86079447D01*
X150496425Y-86080643D01*
X150493975Y-86081036D01*
X150492302Y-86080851D01*
X150491507Y-86080552D01*
X150483797Y-86076239D01*
X150468647Y-86067119D01*
X150447135Y-86053879D01*
X150420340Y-86037204D01*
X150389341Y-86017780D01*
X150355217Y-85996294D01*
X150319047Y-85973429D01*
X150281910Y-85949873D01*
X150244885Y-85926311D01*
X150209052Y-85903429D01*
X150175488Y-85881913D01*
X150145274Y-85862447D01*
X150119487Y-85845719D01*
X150099208Y-85832414D01*
X150085514Y-85823218D01*
X150079485Y-85818816D01*
X150079294Y-85818567D01*
X150082112Y-85813432D01*
X150090102Y-85800639D01*
X150102531Y-85781315D01*
X150118669Y-85756584D01*
X150137783Y-85727575D01*
X150159143Y-85695412D01*
X150165239Y-85686275D01*
X150295831Y-85500105D01*
X150433925Y-85321357D01*
X150579356Y-85150158D01*
X150731955Y-84986640D01*
X150891554Y-84830931D01*
X151057988Y-84683160D01*
X151231087Y-84543458D01*
X151410685Y-84411953D01*
X151596615Y-84288776D01*
X151788708Y-84174054D01*
X151986798Y-84067918D01*
X152190716Y-83970498D01*
X152400297Y-83881921D01*
X152592213Y-83810365D01*
X152793197Y-83745229D01*
X152998743Y-83688985D01*
X153209193Y-83641565D01*
X153424891Y-83602896D01*
X153646179Y-83572910D01*
X153846916Y-83553562D01*
X153878091Y-83551658D01*
X153918258Y-83550065D01*
X153965830Y-83548782D01*
X154019221Y-83547810D01*
X154076844Y-83547148D01*
X154137112Y-83546795D01*
X154198439Y-83546753D01*
X154259239Y-83547020D01*
D10*
%TO.C,U2*%
X144880000Y-71865000D02*
X121560000Y-71865000D01*
X147420000Y-78765000D02*
X147420000Y-104195000D01*
X121560000Y-71865000D02*
X121560000Y-104195000D01*
X123680000Y-106325000D02*
X145290000Y-106325000D01*
D11*
G36*
X148460000Y-98620000D02*
G01*
X148460000Y-97350000D01*
X147825000Y-97985000D01*
X148460000Y-98620000D01*
G37*
X148460000Y-98620000D02*
X148460000Y-97350000D01*
X147825000Y-97985000D01*
X148460000Y-98620000D01*
D10*
X147420000Y-78765000D02*
X144880000Y-78765000D01*
X144880000Y-78765000D02*
X144880000Y-71865000D01*
X123690000Y-106325000D02*
G75*
G02*
X121560000Y-104195000I0J2130000D01*
G01*
X147420000Y-104195000D02*
G75*
G02*
X145290000Y-106325000I-2130000J0D01*
G01*
%TO.C,C3*%
X148600000Y-72100000D02*
X153440000Y-72100000D01*
X148600000Y-74340000D02*
X153440000Y-74340000D01*
X148600000Y-72100000D02*
X148600000Y-74340000D01*
X153440000Y-72100000D02*
X153440000Y-74340000D01*
%TO.C,C2*%
X159790000Y-74340000D02*
X154950000Y-74340000D01*
X159790000Y-72100000D02*
X154950000Y-72100000D01*
X159790000Y-74340000D02*
X159790000Y-72100000D01*
X154950000Y-74340000D02*
X154950000Y-72100000D01*
%TO.C,C1*%
X161300000Y-103850000D02*
X166140000Y-103850000D01*
X161300000Y-106090000D02*
X166140000Y-106090000D01*
X161300000Y-103850000D02*
X161300000Y-106090000D01*
X166140000Y-103850000D02*
X166140000Y-106090000D01*
%TO.C,R5*%
X118210000Y-87920000D02*
X117880000Y-87920000D01*
X117880000Y-87920000D02*
X117880000Y-81380000D01*
X117880000Y-81380000D02*
X118210000Y-81380000D01*
X120290000Y-87920000D02*
X120620000Y-87920000D01*
X120620000Y-87920000D02*
X120620000Y-81380000D01*
X120620000Y-81380000D02*
X120290000Y-81380000D01*
%TO.C,R4*%
X150770000Y-101700000D02*
X151100000Y-101700000D01*
X151100000Y-101700000D02*
X151100000Y-108240000D01*
X151100000Y-108240000D02*
X150770000Y-108240000D01*
X148690000Y-101700000D02*
X148360000Y-101700000D01*
X148360000Y-101700000D02*
X148360000Y-108240000D01*
X148360000Y-108240000D02*
X148690000Y-108240000D01*
%TO.C,R3*%
X154580000Y-101700000D02*
X154910000Y-101700000D01*
X154910000Y-101700000D02*
X154910000Y-108240000D01*
X154910000Y-108240000D02*
X154580000Y-108240000D01*
X152500000Y-101700000D02*
X152170000Y-101700000D01*
X152170000Y-101700000D02*
X152170000Y-108240000D01*
X152170000Y-108240000D02*
X152500000Y-108240000D01*
%TO.C,R2*%
X176495000Y-97755000D02*
X176495000Y-98085000D01*
X176495000Y-98085000D02*
X169955000Y-98085000D01*
X169955000Y-98085000D02*
X169955000Y-97755000D01*
X176495000Y-95675000D02*
X176495000Y-95345000D01*
X176495000Y-95345000D02*
X169955000Y-95345000D01*
X169955000Y-95345000D02*
X169955000Y-95675000D01*
%TO.C,R1*%
X156310000Y-108240000D02*
X155980000Y-108240000D01*
X155980000Y-108240000D02*
X155980000Y-101700000D01*
X155980000Y-101700000D02*
X156310000Y-101700000D01*
X158390000Y-108240000D02*
X158720000Y-108240000D01*
X158720000Y-108240000D02*
X158720000Y-101700000D01*
X158720000Y-101700000D02*
X158390000Y-101700000D01*
%TO.C,J5*%
X181420000Y-85345000D02*
X184080000Y-85345000D01*
X181420000Y-82745000D02*
X181420000Y-85345000D01*
X184080000Y-82745000D02*
X184080000Y-85345000D01*
X181420000Y-82745000D02*
X184080000Y-82745000D01*
X181420000Y-81475000D02*
X181420000Y-80145000D01*
X181420000Y-80145000D02*
X182750000Y-80145000D01*
%TO.C,J2*%
X146615000Y-110745000D02*
X146615000Y-108085000D01*
X141475000Y-110745000D02*
X146615000Y-110745000D01*
X141475000Y-108085000D02*
X146615000Y-108085000D01*
X141475000Y-110745000D02*
X141475000Y-108085000D01*
X140205000Y-110745000D02*
X138875000Y-110745000D01*
X138875000Y-110745000D02*
X138875000Y-109415000D01*
%TO.C,J1*%
X166300000Y-110745000D02*
X166300000Y-108085000D01*
X163700000Y-110745000D02*
X166300000Y-110745000D01*
X163700000Y-108085000D02*
X166300000Y-108085000D01*
X163700000Y-110745000D02*
X163700000Y-108085000D01*
X162430000Y-110745000D02*
X161100000Y-110745000D01*
X161100000Y-110745000D02*
X161100000Y-109415000D01*
D11*
%TO.C,U3*%
G36*
X159890000Y-73220000D02*
G01*
X159890000Y-74490000D01*
X160525000Y-73855000D01*
X159890000Y-73220000D01*
G37*
X159890000Y-73220000D02*
X159890000Y-74490000D01*
X160525000Y-73855000D01*
X159890000Y-73220000D01*
D10*
X179194000Y-93921000D02*
X160906000Y-93921000D01*
X160906000Y-71569000D02*
X179194000Y-71569000D01*
X160906000Y-71569000D02*
X160906000Y-93921000D01*
X179194000Y-71569000D02*
X179194000Y-93921000D01*
X166240000Y-76649000D02*
X173860000Y-76649000D01*
X173860000Y-71569000D02*
X173860000Y-76649000D01*
X166240000Y-76649000D02*
X166240000Y-71569000D01*
%TO.C,U1*%
X159295000Y-80300000D02*
X149055000Y-80300000D01*
X159295000Y-75659000D02*
X149055000Y-75659000D01*
X159295000Y-80300000D02*
X159295000Y-75659000D01*
X149055000Y-80300000D02*
X149055000Y-75659000D01*
X159295000Y-78790000D02*
X149055000Y-78790000D01*
X156025000Y-80300000D02*
X156025000Y-78790000D01*
X152324000Y-80300000D02*
X152324000Y-78790000D01*
%TO.C,Q2*%
X165550000Y-100420000D02*
X165550000Y-96820000D01*
X165527684Y-96811555D02*
G75*
G03*
X161250000Y-97840000I-1827684J-1808445D01*
G01*
X165542156Y-100431453D02*
G75*
G02*
X161250000Y-99440000I-1842156J1811453D01*
G01*
%TO.C,Q1*%
X171440000Y-99405000D02*
X171440000Y-106225000D01*
X168900000Y-99405000D02*
X168900000Y-106225000D01*
X171440000Y-99405000D02*
X168900000Y-99405000D01*
X171440000Y-106225000D02*
X168900000Y-106225000D01*
X170701000Y-99405000D02*
X170701000Y-99516000D01*
X170701000Y-101534000D02*
X170701000Y-101807000D01*
X170701000Y-103824000D02*
X170701000Y-104097000D01*
X170701000Y-106114000D02*
X170701000Y-106225000D01*
%TO.C,J4*%
X134550000Y-110745000D02*
X134550000Y-108085000D01*
X124330000Y-110745000D02*
X134550000Y-110745000D01*
X124330000Y-108085000D02*
X134550000Y-108085000D01*
X124330000Y-110745000D02*
X124330000Y-108085000D01*
X123060000Y-110745000D02*
X121730000Y-110745000D01*
X121730000Y-110745000D02*
X121730000Y-109415000D01*
%TO.C,J3*%
X179000000Y-110745000D02*
X179000000Y-108085000D01*
X173860000Y-110745000D02*
X179000000Y-110745000D01*
X173860000Y-108085000D02*
X179000000Y-108085000D01*
X173860000Y-110745000D02*
X173860000Y-108085000D01*
X172590000Y-110745000D02*
X171260000Y-110745000D01*
X171260000Y-110745000D02*
X171260000Y-109415000D01*
%TO.C,D1*%
X120370000Y-95230000D02*
X118130000Y-95230000D01*
X118130000Y-95230000D02*
X118130000Y-99470000D01*
X118130000Y-99470000D02*
X120370000Y-99470000D01*
X120370000Y-99470000D02*
X120370000Y-95230000D01*
X119250000Y-94580000D02*
X119250000Y-95230000D01*
X119250000Y-100120000D02*
X119250000Y-99470000D01*
X120370000Y-95950000D02*
X118130000Y-95950000D01*
X120370000Y-96070000D02*
X118130000Y-96070000D01*
X120370000Y-95830000D02*
X118130000Y-95830000D01*
%TO.C,C4*%
X179690000Y-103065000D02*
G75*
G03*
X179690000Y-103065000I-3270000J0D01*
G01*
X176420000Y-99835000D02*
X176420000Y-106295000D01*
X176460000Y-99835000D02*
X176460000Y-106295000D01*
X176500000Y-99835000D02*
X176500000Y-106295000D01*
X176540000Y-99837000D02*
X176540000Y-106293000D01*
X176580000Y-99838000D02*
X176580000Y-106292000D01*
X176620000Y-99841000D02*
X176620000Y-106289000D01*
X176660000Y-99843000D02*
X176660000Y-102025000D01*
X176660000Y-104105000D02*
X176660000Y-106287000D01*
X176700000Y-99847000D02*
X176700000Y-102025000D01*
X176700000Y-104105000D02*
X176700000Y-106283000D01*
X176740000Y-99850000D02*
X176740000Y-102025000D01*
X176740000Y-104105000D02*
X176740000Y-106280000D01*
X176780000Y-99854000D02*
X176780000Y-102025000D01*
X176780000Y-104105000D02*
X176780000Y-106276000D01*
X176820000Y-99859000D02*
X176820000Y-102025000D01*
X176820000Y-104105000D02*
X176820000Y-106271000D01*
X176860000Y-99864000D02*
X176860000Y-102025000D01*
X176860000Y-104105000D02*
X176860000Y-106266000D01*
X176900000Y-99870000D02*
X176900000Y-102025000D01*
X176900000Y-104105000D02*
X176900000Y-106260000D01*
X176940000Y-99876000D02*
X176940000Y-102025000D01*
X176940000Y-104105000D02*
X176940000Y-106254000D01*
X176980000Y-99883000D02*
X176980000Y-102025000D01*
X176980000Y-104105000D02*
X176980000Y-106247000D01*
X177020000Y-99890000D02*
X177020000Y-102025000D01*
X177020000Y-104105000D02*
X177020000Y-106240000D01*
X177060000Y-99898000D02*
X177060000Y-102025000D01*
X177060000Y-104105000D02*
X177060000Y-106232000D01*
X177100000Y-99906000D02*
X177100000Y-102025000D01*
X177100000Y-104105000D02*
X177100000Y-106224000D01*
X177141000Y-99915000D02*
X177141000Y-102025000D01*
X177141000Y-104105000D02*
X177141000Y-106215000D01*
X177181000Y-99924000D02*
X177181000Y-102025000D01*
X177181000Y-104105000D02*
X177181000Y-106206000D01*
X177221000Y-99934000D02*
X177221000Y-102025000D01*
X177221000Y-104105000D02*
X177221000Y-106196000D01*
X177261000Y-99944000D02*
X177261000Y-102025000D01*
X177261000Y-104105000D02*
X177261000Y-106186000D01*
X177301000Y-99955000D02*
X177301000Y-102025000D01*
X177301000Y-104105000D02*
X177301000Y-106175000D01*
X177341000Y-99967000D02*
X177341000Y-102025000D01*
X177341000Y-104105000D02*
X177341000Y-106163000D01*
X177381000Y-99979000D02*
X177381000Y-102025000D01*
X177381000Y-104105000D02*
X177381000Y-106151000D01*
X177421000Y-99991000D02*
X177421000Y-102025000D01*
X177421000Y-104105000D02*
X177421000Y-106139000D01*
X177461000Y-100004000D02*
X177461000Y-102025000D01*
X177461000Y-104105000D02*
X177461000Y-106126000D01*
X177501000Y-100018000D02*
X177501000Y-102025000D01*
X177501000Y-104105000D02*
X177501000Y-106112000D01*
X177541000Y-100032000D02*
X177541000Y-102025000D01*
X177541000Y-104105000D02*
X177541000Y-106098000D01*
X177581000Y-100047000D02*
X177581000Y-102025000D01*
X177581000Y-104105000D02*
X177581000Y-106083000D01*
X177621000Y-100063000D02*
X177621000Y-102025000D01*
X177621000Y-104105000D02*
X177621000Y-106067000D01*
X177661000Y-100079000D02*
X177661000Y-102025000D01*
X177661000Y-104105000D02*
X177661000Y-106051000D01*
X177701000Y-100095000D02*
X177701000Y-102025000D01*
X177701000Y-104105000D02*
X177701000Y-106035000D01*
X177741000Y-100113000D02*
X177741000Y-102025000D01*
X177741000Y-104105000D02*
X177741000Y-106017000D01*
X177781000Y-100131000D02*
X177781000Y-102025000D01*
X177781000Y-104105000D02*
X177781000Y-105999000D01*
X177821000Y-100149000D02*
X177821000Y-102025000D01*
X177821000Y-104105000D02*
X177821000Y-105981000D01*
X177861000Y-100169000D02*
X177861000Y-102025000D01*
X177861000Y-104105000D02*
X177861000Y-105961000D01*
X177901000Y-100189000D02*
X177901000Y-102025000D01*
X177901000Y-104105000D02*
X177901000Y-105941000D01*
X177941000Y-100209000D02*
X177941000Y-102025000D01*
X177941000Y-104105000D02*
X177941000Y-105921000D01*
X177981000Y-100231000D02*
X177981000Y-102025000D01*
X177981000Y-104105000D02*
X177981000Y-105899000D01*
X178021000Y-100253000D02*
X178021000Y-102025000D01*
X178021000Y-104105000D02*
X178021000Y-105877000D01*
X178061000Y-100275000D02*
X178061000Y-102025000D01*
X178061000Y-104105000D02*
X178061000Y-105855000D01*
X178101000Y-100299000D02*
X178101000Y-102025000D01*
X178101000Y-104105000D02*
X178101000Y-105831000D01*
X178141000Y-100323000D02*
X178141000Y-102025000D01*
X178141000Y-104105000D02*
X178141000Y-105807000D01*
X178181000Y-100349000D02*
X178181000Y-102025000D01*
X178181000Y-104105000D02*
X178181000Y-105781000D01*
X178221000Y-100375000D02*
X178221000Y-102025000D01*
X178221000Y-104105000D02*
X178221000Y-105755000D01*
X178261000Y-100401000D02*
X178261000Y-102025000D01*
X178261000Y-104105000D02*
X178261000Y-105729000D01*
X178301000Y-100429000D02*
X178301000Y-102025000D01*
X178301000Y-104105000D02*
X178301000Y-105701000D01*
X178341000Y-100458000D02*
X178341000Y-102025000D01*
X178341000Y-104105000D02*
X178341000Y-105672000D01*
X178381000Y-100487000D02*
X178381000Y-102025000D01*
X178381000Y-104105000D02*
X178381000Y-105643000D01*
X178421000Y-100517000D02*
X178421000Y-102025000D01*
X178421000Y-104105000D02*
X178421000Y-105613000D01*
X178461000Y-100549000D02*
X178461000Y-102025000D01*
X178461000Y-104105000D02*
X178461000Y-105581000D01*
X178501000Y-100581000D02*
X178501000Y-102025000D01*
X178501000Y-104105000D02*
X178501000Y-105549000D01*
X178541000Y-100615000D02*
X178541000Y-102025000D01*
X178541000Y-104105000D02*
X178541000Y-105515000D01*
X178581000Y-100649000D02*
X178581000Y-102025000D01*
X178581000Y-104105000D02*
X178581000Y-105481000D01*
X178621000Y-100685000D02*
X178621000Y-102025000D01*
X178621000Y-104105000D02*
X178621000Y-105445000D01*
X178661000Y-100722000D02*
X178661000Y-102025000D01*
X178661000Y-104105000D02*
X178661000Y-105408000D01*
X178701000Y-100760000D02*
X178701000Y-102025000D01*
X178701000Y-104105000D02*
X178701000Y-105370000D01*
X178741000Y-100800000D02*
X178741000Y-105330000D01*
X178781000Y-100841000D02*
X178781000Y-105289000D01*
X178821000Y-100883000D02*
X178821000Y-105247000D01*
X178861000Y-100928000D02*
X178861000Y-105202000D01*
X178901000Y-100973000D02*
X178901000Y-105157000D01*
X178941000Y-101021000D02*
X178941000Y-105109000D01*
X178981000Y-101070000D02*
X178981000Y-105060000D01*
X179021000Y-101121000D02*
X179021000Y-105009000D01*
X179061000Y-101175000D02*
X179061000Y-104955000D01*
X179101000Y-101231000D02*
X179101000Y-104899000D01*
X179141000Y-101289000D02*
X179141000Y-104841000D01*
X179181000Y-101351000D02*
X179181000Y-104779000D01*
X179221000Y-101415000D02*
X179221000Y-104715000D01*
X179261000Y-101484000D02*
X179261000Y-104646000D01*
X179301000Y-101556000D02*
X179301000Y-104574000D01*
X179341000Y-101633000D02*
X179341000Y-104497000D01*
X179381000Y-101715000D02*
X179381000Y-104415000D01*
X179421000Y-101803000D02*
X179421000Y-104327000D01*
X179461000Y-101900000D02*
X179461000Y-104230000D01*
X179501000Y-102006000D02*
X179501000Y-104124000D01*
X179541000Y-102125000D02*
X179541000Y-104005000D01*
X179581000Y-102263000D02*
X179581000Y-103867000D01*
X179621000Y-102432000D02*
X179621000Y-103698000D01*
X179661000Y-102663000D02*
X179661000Y-103467000D01*
X172919759Y-101226000D02*
X173549759Y-101226000D01*
X173234759Y-100911000D02*
X173234759Y-101541000D01*
%TO.C,U2*%
D11*
X145372380Y-73981904D02*
X146181904Y-73981904D01*
X146277142Y-73934285D01*
X146324761Y-73886666D01*
X146372380Y-73791428D01*
X146372380Y-73600952D01*
X146324761Y-73505714D01*
X146277142Y-73458095D01*
X146181904Y-73410476D01*
X145372380Y-73410476D01*
X145467619Y-72981904D02*
X145420000Y-72934285D01*
X145372380Y-72839047D01*
X145372380Y-72600952D01*
X145420000Y-72505714D01*
X145467619Y-72458095D01*
X145562857Y-72410476D01*
X145658095Y-72410476D01*
X145800952Y-72458095D01*
X146372380Y-73029523D01*
X146372380Y-72410476D01*
%TO.C,C3*%
X148245642Y-73386666D02*
X148293261Y-73434285D01*
X148340880Y-73577142D01*
X148340880Y-73672380D01*
X148293261Y-73815238D01*
X148198023Y-73910476D01*
X148102785Y-73958095D01*
X147912309Y-74005714D01*
X147769452Y-74005714D01*
X147578976Y-73958095D01*
X147483738Y-73910476D01*
X147388500Y-73815238D01*
X147340880Y-73672380D01*
X147340880Y-73577142D01*
X147388500Y-73434285D01*
X147436119Y-73386666D01*
X147340880Y-73053333D02*
X147340880Y-72434285D01*
X147721833Y-72767619D01*
X147721833Y-72624761D01*
X147769452Y-72529523D01*
X147817071Y-72481904D01*
X147912309Y-72434285D01*
X148150404Y-72434285D01*
X148245642Y-72481904D01*
X148293261Y-72529523D01*
X148340880Y-72624761D01*
X148340880Y-72910476D01*
X148293261Y-73005714D01*
X148245642Y-73053333D01*
%TO.C,C2*%
X154595642Y-73386666D02*
X154643261Y-73434285D01*
X154690880Y-73577142D01*
X154690880Y-73672380D01*
X154643261Y-73815238D01*
X154548023Y-73910476D01*
X154452785Y-73958095D01*
X154262309Y-74005714D01*
X154119452Y-74005714D01*
X153928976Y-73958095D01*
X153833738Y-73910476D01*
X153738500Y-73815238D01*
X153690880Y-73672380D01*
X153690880Y-73577142D01*
X153738500Y-73434285D01*
X153786119Y-73386666D01*
X153786119Y-73005714D02*
X153738500Y-72958095D01*
X153690880Y-72862857D01*
X153690880Y-72624761D01*
X153738500Y-72529523D01*
X153786119Y-72481904D01*
X153881357Y-72434285D01*
X153976595Y-72434285D01*
X154119452Y-72481904D01*
X154690880Y-73053333D01*
X154690880Y-72434285D01*
%TO.C,C1*%
X163553333Y-103077142D02*
X163505714Y-103124761D01*
X163362857Y-103172380D01*
X163267619Y-103172380D01*
X163124761Y-103124761D01*
X163029523Y-103029523D01*
X162981904Y-102934285D01*
X162934285Y-102743809D01*
X162934285Y-102600952D01*
X162981904Y-102410476D01*
X163029523Y-102315238D01*
X163124761Y-102220000D01*
X163267619Y-102172380D01*
X163362857Y-102172380D01*
X163505714Y-102220000D01*
X163553333Y-102267619D01*
X164505714Y-103172380D02*
X163934285Y-103172380D01*
X164220000Y-103172380D02*
X164220000Y-102172380D01*
X164124761Y-102315238D01*
X164029523Y-102410476D01*
X163934285Y-102458095D01*
%TO.C,R5*%
X119083333Y-90817380D02*
X118750000Y-90341190D01*
X118511904Y-90817380D02*
X118511904Y-89817380D01*
X118892857Y-89817380D01*
X118988095Y-89865000D01*
X119035714Y-89912619D01*
X119083333Y-90007857D01*
X119083333Y-90150714D01*
X119035714Y-90245952D01*
X118988095Y-90293571D01*
X118892857Y-90341190D01*
X118511904Y-90341190D01*
X119988095Y-89817380D02*
X119511904Y-89817380D01*
X119464285Y-90293571D01*
X119511904Y-90245952D01*
X119607142Y-90198333D01*
X119845238Y-90198333D01*
X119940476Y-90245952D01*
X119988095Y-90293571D01*
X120035714Y-90388809D01*
X120035714Y-90626904D01*
X119988095Y-90722142D01*
X119940476Y-90769761D01*
X119845238Y-90817380D01*
X119607142Y-90817380D01*
X119511904Y-90769761D01*
X119464285Y-90722142D01*
%TO.C,R4*%
X149563333Y-99707380D02*
X149230000Y-99231190D01*
X148991904Y-99707380D02*
X148991904Y-98707380D01*
X149372857Y-98707380D01*
X149468095Y-98755000D01*
X149515714Y-98802619D01*
X149563333Y-98897857D01*
X149563333Y-99040714D01*
X149515714Y-99135952D01*
X149468095Y-99183571D01*
X149372857Y-99231190D01*
X148991904Y-99231190D01*
X150420476Y-99040714D02*
X150420476Y-99707380D01*
X150182380Y-98659761D02*
X149944285Y-99374047D01*
X150563333Y-99374047D01*
%TO.C,R3*%
X153373333Y-99707380D02*
X153040000Y-99231190D01*
X152801904Y-99707380D02*
X152801904Y-98707380D01*
X153182857Y-98707380D01*
X153278095Y-98755000D01*
X153325714Y-98802619D01*
X153373333Y-98897857D01*
X153373333Y-99040714D01*
X153325714Y-99135952D01*
X153278095Y-99183571D01*
X153182857Y-99231190D01*
X152801904Y-99231190D01*
X153706666Y-98707380D02*
X154325714Y-98707380D01*
X153992380Y-99088333D01*
X154135238Y-99088333D01*
X154230476Y-99135952D01*
X154278095Y-99183571D01*
X154325714Y-99278809D01*
X154325714Y-99516904D01*
X154278095Y-99612142D01*
X154230476Y-99659761D01*
X154135238Y-99707380D01*
X153849523Y-99707380D01*
X153754285Y-99659761D01*
X153706666Y-99612142D01*
%TO.C,R2*%
X173058333Y-99537380D02*
X172725000Y-99061190D01*
X172486904Y-99537380D02*
X172486904Y-98537380D01*
X172867857Y-98537380D01*
X172963095Y-98585000D01*
X173010714Y-98632619D01*
X173058333Y-98727857D01*
X173058333Y-98870714D01*
X173010714Y-98965952D01*
X172963095Y-99013571D01*
X172867857Y-99061190D01*
X172486904Y-99061190D01*
X173439285Y-98632619D02*
X173486904Y-98585000D01*
X173582142Y-98537380D01*
X173820238Y-98537380D01*
X173915476Y-98585000D01*
X173963095Y-98632619D01*
X174010714Y-98727857D01*
X174010714Y-98823095D01*
X173963095Y-98965952D01*
X173391666Y-99537380D01*
X174010714Y-99537380D01*
%TO.C,R1*%
X157183333Y-99707380D02*
X156850000Y-99231190D01*
X156611904Y-99707380D02*
X156611904Y-98707380D01*
X156992857Y-98707380D01*
X157088095Y-98755000D01*
X157135714Y-98802619D01*
X157183333Y-98897857D01*
X157183333Y-99040714D01*
X157135714Y-99135952D01*
X157088095Y-99183571D01*
X156992857Y-99231190D01*
X156611904Y-99231190D01*
X158135714Y-99707380D02*
X157564285Y-99707380D01*
X157850000Y-99707380D02*
X157850000Y-98707380D01*
X157754761Y-98850238D01*
X157659523Y-98945476D01*
X157564285Y-98993095D01*
%TO.C,J5*%
X182416666Y-78597380D02*
X182416666Y-79311666D01*
X182369047Y-79454523D01*
X182273809Y-79549761D01*
X182130952Y-79597380D01*
X182035714Y-79597380D01*
X183369047Y-78597380D02*
X182892857Y-78597380D01*
X182845238Y-79073571D01*
X182892857Y-79025952D01*
X182988095Y-78978333D01*
X183226190Y-78978333D01*
X183321428Y-79025952D01*
X183369047Y-79073571D01*
X183416666Y-79168809D01*
X183416666Y-79406904D01*
X183369047Y-79502142D01*
X183321428Y-79549761D01*
X183226190Y-79597380D01*
X182988095Y-79597380D01*
X182892857Y-79549761D01*
X182845238Y-79502142D01*
X180868761Y-85506904D02*
X180916380Y-85364047D01*
X180916380Y-85125952D01*
X180868761Y-85030714D01*
X180821142Y-84983095D01*
X180725904Y-84935476D01*
X180630666Y-84935476D01*
X180535428Y-84983095D01*
X180487809Y-85030714D01*
X180440190Y-85125952D01*
X180392571Y-85316428D01*
X180344952Y-85411666D01*
X180297333Y-85459285D01*
X180202095Y-85506904D01*
X180106857Y-85506904D01*
X180011619Y-85459285D01*
X179964000Y-85411666D01*
X179916380Y-85316428D01*
X179916380Y-85078333D01*
X179964000Y-84935476D01*
X180249714Y-84506904D02*
X181249714Y-84506904D01*
X180297333Y-84506904D02*
X180249714Y-84411666D01*
X180249714Y-84221190D01*
X180297333Y-84125952D01*
X180344952Y-84078333D01*
X180440190Y-84030714D01*
X180725904Y-84030714D01*
X180821142Y-84078333D01*
X180868761Y-84125952D01*
X180916380Y-84221190D01*
X180916380Y-84411666D01*
X180868761Y-84506904D01*
X180868761Y-83221190D02*
X180916380Y-83316428D01*
X180916380Y-83506904D01*
X180868761Y-83602142D01*
X180773523Y-83649761D01*
X180392571Y-83649761D01*
X180297333Y-83602142D01*
X180249714Y-83506904D01*
X180249714Y-83316428D01*
X180297333Y-83221190D01*
X180392571Y-83173571D01*
X180487809Y-83173571D01*
X180583047Y-83649761D01*
X180916380Y-82316428D02*
X180392571Y-82316428D01*
X180297333Y-82364047D01*
X180249714Y-82459285D01*
X180249714Y-82649761D01*
X180297333Y-82745000D01*
X180868761Y-82316428D02*
X180916380Y-82411666D01*
X180916380Y-82649761D01*
X180868761Y-82745000D01*
X180773523Y-82792619D01*
X180678285Y-82792619D01*
X180583047Y-82745000D01*
X180535428Y-82649761D01*
X180535428Y-82411666D01*
X180487809Y-82316428D01*
X180916380Y-81840238D02*
X179916380Y-81840238D01*
X180535428Y-81745000D02*
X180916380Y-81459285D01*
X180249714Y-81459285D02*
X180630666Y-81840238D01*
X180868761Y-80649761D02*
X180916380Y-80745000D01*
X180916380Y-80935476D01*
X180868761Y-81030714D01*
X180773523Y-81078333D01*
X180392571Y-81078333D01*
X180297333Y-81030714D01*
X180249714Y-80935476D01*
X180249714Y-80745000D01*
X180297333Y-80649761D01*
X180392571Y-80602142D01*
X180487809Y-80602142D01*
X180583047Y-81078333D01*
X180916380Y-80173571D02*
X180249714Y-80173571D01*
X180440190Y-80173571D02*
X180344952Y-80125952D01*
X180297333Y-80078333D01*
X180249714Y-79983095D01*
X180249714Y-79887857D01*
%TO.C,J2*%
X137327380Y-109748333D02*
X138041666Y-109748333D01*
X138184523Y-109795952D01*
X138279761Y-109891190D01*
X138327380Y-110034047D01*
X138327380Y-110129285D01*
X137422619Y-109319761D02*
X137375000Y-109272142D01*
X137327380Y-109176904D01*
X137327380Y-108938809D01*
X137375000Y-108843571D01*
X137422619Y-108795952D01*
X137517857Y-108748333D01*
X137613095Y-108748333D01*
X137755952Y-108795952D01*
X138327380Y-109367380D01*
X138327380Y-108748333D01*
X139149761Y-107184571D02*
X138816428Y-107184571D01*
X138816428Y-107708380D02*
X138816428Y-106708380D01*
X139292619Y-106708380D01*
X139816428Y-107708380D02*
X139721190Y-107660761D01*
X139673571Y-107565523D01*
X139673571Y-106708380D01*
X140197380Y-107708380D02*
X140197380Y-107041714D01*
X140197380Y-106708380D02*
X140149761Y-106756000D01*
X140197380Y-106803619D01*
X140245000Y-106756000D01*
X140197380Y-106708380D01*
X140197380Y-106803619D01*
X140673571Y-107041714D02*
X140673571Y-108041714D01*
X140673571Y-107089333D02*
X140768809Y-107041714D01*
X140959285Y-107041714D01*
X141054523Y-107089333D01*
X141102142Y-107136952D01*
X141149761Y-107232190D01*
X141149761Y-107517904D01*
X141102142Y-107613142D01*
X141054523Y-107660761D01*
X140959285Y-107708380D01*
X140768809Y-107708380D01*
X140673571Y-107660761D01*
X142292619Y-107660761D02*
X142435476Y-107708380D01*
X142673571Y-107708380D01*
X142768809Y-107660761D01*
X142816428Y-107613142D01*
X142864047Y-107517904D01*
X142864047Y-107422666D01*
X142816428Y-107327428D01*
X142768809Y-107279809D01*
X142673571Y-107232190D01*
X142483095Y-107184571D01*
X142387857Y-107136952D01*
X142340238Y-107089333D01*
X142292619Y-106994095D01*
X142292619Y-106898857D01*
X142340238Y-106803619D01*
X142387857Y-106756000D01*
X142483095Y-106708380D01*
X142721190Y-106708380D01*
X142864047Y-106756000D01*
X143197380Y-107041714D02*
X143387857Y-107708380D01*
X143578333Y-107232190D01*
X143768809Y-107708380D01*
X143959285Y-107041714D01*
X144340238Y-107708380D02*
X144340238Y-107041714D01*
X144340238Y-106708380D02*
X144292619Y-106756000D01*
X144340238Y-106803619D01*
X144387857Y-106756000D01*
X144340238Y-106708380D01*
X144340238Y-106803619D01*
X144673571Y-107041714D02*
X145054523Y-107041714D01*
X144816428Y-106708380D02*
X144816428Y-107565523D01*
X144864047Y-107660761D01*
X144959285Y-107708380D01*
X145054523Y-107708380D01*
X145816428Y-107660761D02*
X145721190Y-107708380D01*
X145530714Y-107708380D01*
X145435476Y-107660761D01*
X145387857Y-107613142D01*
X145340238Y-107517904D01*
X145340238Y-107232190D01*
X145387857Y-107136952D01*
X145435476Y-107089333D01*
X145530714Y-107041714D01*
X145721190Y-107041714D01*
X145816428Y-107089333D01*
X146245000Y-107708380D02*
X146245000Y-106708380D01*
X146673571Y-107708380D02*
X146673571Y-107184571D01*
X146625952Y-107089333D01*
X146530714Y-107041714D01*
X146387857Y-107041714D01*
X146292619Y-107089333D01*
X146245000Y-107136952D01*
%TO.C,J1*%
X159552380Y-109748333D02*
X160266666Y-109748333D01*
X160409523Y-109795952D01*
X160504761Y-109891190D01*
X160552380Y-110034047D01*
X160552380Y-110129285D01*
X160552380Y-108748333D02*
X160552380Y-109319761D01*
X160552380Y-109034047D02*
X159552380Y-109034047D01*
X159695238Y-109129285D01*
X159790476Y-109224523D01*
X159838095Y-109319761D01*
X161628571Y-107184571D02*
X161771428Y-107232190D01*
X161819047Y-107279809D01*
X161866666Y-107375047D01*
X161866666Y-107517904D01*
X161819047Y-107613142D01*
X161771428Y-107660761D01*
X161676190Y-107708380D01*
X161295238Y-107708380D01*
X161295238Y-106708380D01*
X161628571Y-106708380D01*
X161723809Y-106756000D01*
X161771428Y-106803619D01*
X161819047Y-106898857D01*
X161819047Y-106994095D01*
X161771428Y-107089333D01*
X161723809Y-107136952D01*
X161628571Y-107184571D01*
X161295238Y-107184571D01*
X162723809Y-107708380D02*
X162723809Y-107184571D01*
X162676190Y-107089333D01*
X162580952Y-107041714D01*
X162390476Y-107041714D01*
X162295238Y-107089333D01*
X162723809Y-107660761D02*
X162628571Y-107708380D01*
X162390476Y-107708380D01*
X162295238Y-107660761D01*
X162247619Y-107565523D01*
X162247619Y-107470285D01*
X162295238Y-107375047D01*
X162390476Y-107327428D01*
X162628571Y-107327428D01*
X162723809Y-107279809D01*
X163057142Y-107041714D02*
X163438095Y-107041714D01*
X163200000Y-106708380D02*
X163200000Y-107565523D01*
X163247619Y-107660761D01*
X163342857Y-107708380D01*
X163438095Y-107708380D01*
X163628571Y-107041714D02*
X164009523Y-107041714D01*
X163771428Y-106708380D02*
X163771428Y-107565523D01*
X163819047Y-107660761D01*
X163914285Y-107708380D01*
X164009523Y-107708380D01*
X164723809Y-107660761D02*
X164628571Y-107708380D01*
X164438095Y-107708380D01*
X164342857Y-107660761D01*
X164295238Y-107565523D01*
X164295238Y-107184571D01*
X164342857Y-107089333D01*
X164438095Y-107041714D01*
X164628571Y-107041714D01*
X164723809Y-107089333D01*
X164771428Y-107184571D01*
X164771428Y-107279809D01*
X164295238Y-107375047D01*
X165200000Y-107708380D02*
X165200000Y-107041714D01*
X165200000Y-107232190D02*
X165247619Y-107136952D01*
X165295238Y-107089333D01*
X165390476Y-107041714D01*
X165485714Y-107041714D01*
X165723809Y-107041714D02*
X165961904Y-107708380D01*
X166200000Y-107041714D02*
X165961904Y-107708380D01*
X165866666Y-107946476D01*
X165819047Y-107994095D01*
X165723809Y-108041714D01*
%TO.C,U3*%
X160969595Y-94389380D02*
X160969595Y-95198904D01*
X161017214Y-95294142D01*
X161064833Y-95341761D01*
X161160071Y-95389380D01*
X161350547Y-95389380D01*
X161445785Y-95341761D01*
X161493404Y-95294142D01*
X161541023Y-95198904D01*
X161541023Y-94389380D01*
X161921976Y-94389380D02*
X162541023Y-94389380D01*
X162207690Y-94770333D01*
X162350547Y-94770333D01*
X162445785Y-94817952D01*
X162493404Y-94865571D01*
X162541023Y-94960809D01*
X162541023Y-95198904D01*
X162493404Y-95294142D01*
X162445785Y-95341761D01*
X162350547Y-95389380D01*
X162064833Y-95389380D01*
X161969595Y-95341761D01*
X161921976Y-95294142D01*
%TO.C,U1*%
X153413095Y-80752380D02*
X153413095Y-81561904D01*
X153460714Y-81657142D01*
X153508333Y-81704761D01*
X153603571Y-81752380D01*
X153794047Y-81752380D01*
X153889285Y-81704761D01*
X153936904Y-81657142D01*
X153984523Y-81561904D01*
X153984523Y-80752380D01*
X154984523Y-81752380D02*
X154413095Y-81752380D01*
X154698809Y-81752380D02*
X154698809Y-80752380D01*
X154603571Y-80895238D01*
X154508333Y-80990476D01*
X154413095Y-81038095D01*
%TO.C,Q2*%
X167041619Y-98715238D02*
X166994000Y-98810476D01*
X166898761Y-98905714D01*
X166755904Y-99048571D01*
X166708285Y-99143809D01*
X166708285Y-99239047D01*
X166946380Y-99191428D02*
X166898761Y-99286666D01*
X166803523Y-99381904D01*
X166613047Y-99429523D01*
X166279714Y-99429523D01*
X166089238Y-99381904D01*
X165994000Y-99286666D01*
X165946380Y-99191428D01*
X165946380Y-99000952D01*
X165994000Y-98905714D01*
X166089238Y-98810476D01*
X166279714Y-98762857D01*
X166613047Y-98762857D01*
X166803523Y-98810476D01*
X166898761Y-98905714D01*
X166946380Y-99000952D01*
X166946380Y-99191428D01*
X166041619Y-98381904D02*
X165994000Y-98334285D01*
X165946380Y-98239047D01*
X165946380Y-98000952D01*
X165994000Y-97905714D01*
X166041619Y-97858095D01*
X166136857Y-97810476D01*
X166232095Y-97810476D01*
X166374952Y-97858095D01*
X166946380Y-98429523D01*
X166946380Y-97810476D01*
%TO.C,Q1*%
X168502119Y-101128238D02*
X168454500Y-101223476D01*
X168359261Y-101318714D01*
X168216404Y-101461571D01*
X168168785Y-101556809D01*
X168168785Y-101652047D01*
X168406880Y-101604428D02*
X168359261Y-101699666D01*
X168264023Y-101794904D01*
X168073547Y-101842523D01*
X167740214Y-101842523D01*
X167549738Y-101794904D01*
X167454500Y-101699666D01*
X167406880Y-101604428D01*
X167406880Y-101413952D01*
X167454500Y-101318714D01*
X167549738Y-101223476D01*
X167740214Y-101175857D01*
X168073547Y-101175857D01*
X168264023Y-101223476D01*
X168359261Y-101318714D01*
X168406880Y-101413952D01*
X168406880Y-101604428D01*
X168406880Y-100223476D02*
X168406880Y-100794904D01*
X168406880Y-100509190D02*
X167406880Y-100509190D01*
X167549738Y-100604428D01*
X167644976Y-100699666D01*
X167692595Y-100794904D01*
%TO.C,J4*%
X120182380Y-109748333D02*
X120896666Y-109748333D01*
X121039523Y-109795952D01*
X121134761Y-109891190D01*
X121182380Y-110034047D01*
X121182380Y-110129285D01*
X120515714Y-108843571D02*
X121182380Y-108843571D01*
X120134761Y-109081666D02*
X120849047Y-109319761D01*
X120849047Y-108700714D01*
X124854285Y-107708380D02*
X124378095Y-107708380D01*
X124378095Y-106708380D01*
X125187619Y-107184571D02*
X125520952Y-107184571D01*
X125663809Y-107708380D02*
X125187619Y-107708380D01*
X125187619Y-106708380D01*
X125663809Y-106708380D01*
X126092380Y-107708380D02*
X126092380Y-106708380D01*
X126330476Y-106708380D01*
X126473333Y-106756000D01*
X126568571Y-106851238D01*
X126616190Y-106946476D01*
X126663809Y-107136952D01*
X126663809Y-107279809D01*
X126616190Y-107470285D01*
X126568571Y-107565523D01*
X126473333Y-107660761D01*
X126330476Y-107708380D01*
X126092380Y-107708380D01*
X127854285Y-107708380D02*
X127854285Y-106708380D01*
X128187619Y-107422666D01*
X128520952Y-106708380D01*
X128520952Y-107708380D01*
X129425714Y-107708380D02*
X129425714Y-107184571D01*
X129378095Y-107089333D01*
X129282857Y-107041714D01*
X129092380Y-107041714D01*
X128997142Y-107089333D01*
X129425714Y-107660761D02*
X129330476Y-107708380D01*
X129092380Y-107708380D01*
X128997142Y-107660761D01*
X128949523Y-107565523D01*
X128949523Y-107470285D01*
X128997142Y-107375047D01*
X129092380Y-107327428D01*
X129330476Y-107327428D01*
X129425714Y-107279809D01*
X129759047Y-107041714D02*
X130140000Y-107041714D01*
X129901904Y-106708380D02*
X129901904Y-107565523D01*
X129949523Y-107660761D01*
X130044761Y-107708380D01*
X130140000Y-107708380D01*
X130473333Y-107708380D02*
X130473333Y-107041714D01*
X130473333Y-107232190D02*
X130520952Y-107136952D01*
X130568571Y-107089333D01*
X130663809Y-107041714D01*
X130759047Y-107041714D01*
X131092380Y-107708380D02*
X131092380Y-107041714D01*
X131092380Y-106708380D02*
X131044761Y-106756000D01*
X131092380Y-106803619D01*
X131140000Y-106756000D01*
X131092380Y-106708380D01*
X131092380Y-106803619D01*
X131473333Y-107708380D02*
X131997142Y-107041714D01*
X131473333Y-107041714D02*
X131997142Y-107708380D01*
%TO.C,J3*%
X169712380Y-109748333D02*
X170426666Y-109748333D01*
X170569523Y-109795952D01*
X170664761Y-109891190D01*
X170712380Y-110034047D01*
X170712380Y-110129285D01*
X169712380Y-109367380D02*
X169712380Y-108748333D01*
X170093333Y-109081666D01*
X170093333Y-108938809D01*
X170140952Y-108843571D01*
X170188571Y-108795952D01*
X170283809Y-108748333D01*
X170521904Y-108748333D01*
X170617142Y-108795952D01*
X170664761Y-108843571D01*
X170712380Y-108938809D01*
X170712380Y-109224523D01*
X170664761Y-109319761D01*
X170617142Y-109367380D01*
X173272857Y-107660761D02*
X173415714Y-107708380D01*
X173653809Y-107708380D01*
X173749047Y-107660761D01*
X173796666Y-107613142D01*
X173844285Y-107517904D01*
X173844285Y-107422666D01*
X173796666Y-107327428D01*
X173749047Y-107279809D01*
X173653809Y-107232190D01*
X173463333Y-107184571D01*
X173368095Y-107136952D01*
X173320476Y-107089333D01*
X173272857Y-106994095D01*
X173272857Y-106898857D01*
X173320476Y-106803619D01*
X173368095Y-106756000D01*
X173463333Y-106708380D01*
X173701428Y-106708380D01*
X173844285Y-106756000D01*
X174653809Y-107660761D02*
X174558571Y-107708380D01*
X174368095Y-107708380D01*
X174272857Y-107660761D01*
X174225238Y-107565523D01*
X174225238Y-107184571D01*
X174272857Y-107089333D01*
X174368095Y-107041714D01*
X174558571Y-107041714D01*
X174653809Y-107089333D01*
X174701428Y-107184571D01*
X174701428Y-107279809D01*
X174225238Y-107375047D01*
X175130000Y-107708380D02*
X175130000Y-107041714D01*
X175130000Y-107232190D02*
X175177619Y-107136952D01*
X175225238Y-107089333D01*
X175320476Y-107041714D01*
X175415714Y-107041714D01*
X175653809Y-107041714D02*
X175891904Y-107708380D01*
X176130000Y-107041714D01*
X176653809Y-107708380D02*
X176558571Y-107660761D01*
X176510952Y-107613142D01*
X176463333Y-107517904D01*
X176463333Y-107232190D01*
X176510952Y-107136952D01*
X176558571Y-107089333D01*
X176653809Y-107041714D01*
X176796666Y-107041714D01*
X176891904Y-107089333D01*
X176939523Y-107136952D01*
X176987142Y-107232190D01*
X176987142Y-107517904D01*
X176939523Y-107613142D01*
X176891904Y-107660761D01*
X176796666Y-107708380D01*
X176653809Y-107708380D01*
%TO.C,D1*%
X118511904Y-103517380D02*
X118511904Y-102517380D01*
X118750000Y-102517380D01*
X118892857Y-102565000D01*
X118988095Y-102660238D01*
X119035714Y-102755476D01*
X119083333Y-102945952D01*
X119083333Y-103088809D01*
X119035714Y-103279285D01*
X118988095Y-103374523D01*
X118892857Y-103469761D01*
X118750000Y-103517380D01*
X118511904Y-103517380D01*
X120035714Y-103517380D02*
X119464285Y-103517380D01*
X119750000Y-103517380D02*
X119750000Y-102517380D01*
X119654761Y-102660238D01*
X119559523Y-102755476D01*
X119464285Y-102803095D01*
%TO.C,C4*%
X178138333Y-99612142D02*
X178090714Y-99659761D01*
X177947857Y-99707380D01*
X177852619Y-99707380D01*
X177709761Y-99659761D01*
X177614523Y-99564523D01*
X177566904Y-99469285D01*
X177519285Y-99278809D01*
X177519285Y-99135952D01*
X177566904Y-98945476D01*
X177614523Y-98850238D01*
X177709761Y-98755000D01*
X177852619Y-98707380D01*
X177947857Y-98707380D01*
X178090714Y-98755000D01*
X178138333Y-98802619D01*
X178995476Y-99040714D02*
X178995476Y-99707380D01*
X178757380Y-98659761D02*
X178519285Y-99374047D01*
X179138333Y-99374047D01*
%TD*%
M02*
